<svg xmlns="http://www.w3.org/2000/svg" xmlns:xlink="http://www.w3.org/1999/xlink" width="500" zoomAndPan="magnify" viewBox="0 0 375 374.999991" height="500" preserveAspectRatio="xMidYMid meet" version="1.0"><defs><g/><clipPath id="75c9dd5a96"><path d="M 210 51 L 265 51 L 265 177 L 210 177 Z M 210 51 " clip-rule="nonzero"/></clipPath><clipPath id="6c1f524d8c"><path d="M 248.570312 50.660156 L 292.953125 66.871094 L 248.183594 189.449219 L 203.800781 173.238281 Z M 248.570312 50.660156 " clip-rule="nonzero"/></clipPath><clipPath id="3e6cd40659"><path d="M 248.570312 50.660156 L 292.953125 66.871094 L 248.183594 189.449219 L 203.800781 173.238281 Z M 248.570312 50.660156 " clip-rule="nonzero"/></clipPath><clipPath id="363e9b2939"><path d="M 241 65 L 291 65 L 291 189 L 241 189 Z M 241 65 " clip-rule="nonzero"/></clipPath><clipPath id="956819e2d2"><path d="M 248.570312 50.660156 L 292.953125 66.871094 L 248.183594 189.449219 L 203.800781 173.238281 Z M 248.570312 50.660156 " clip-rule="nonzero"/></clipPath><clipPath id="3be1ad8386"><path d="M 248.570312 50.660156 L 292.953125 66.871094 L 248.183594 189.449219 L 203.800781 173.238281 Z M 248.570312 50.660156 " clip-rule="nonzero"/></clipPath><clipPath id="d2c69b8caf"><path d="M 178 90 L 335 90 L 335 254 L 178 254 Z M 178 90 " clip-rule="nonzero"/></clipPath><clipPath id="dcf3f8a76a"><path d="M 239.054688 276.328125 L 155.773438 201.816406 L 288.792969 53.136719 L 372.074219 127.648438 Z M 239.054688 276.328125 " clip-rule="nonzero"/></clipPath><clipPath id="d0894f1c4f"><path d="M 239.054688 276.328125 L 155.773438 201.816406 L 288.792969 53.136719 L 372.074219 127.648438 Z M 239.054688 276.328125 " clip-rule="nonzero"/></clipPath><clipPath id="10ec7c81d0"><path d="M 167 126 L 305 126 L 305 264 L 167 264 Z M 167 126 " clip-rule="nonzero"/></clipPath><clipPath id="2bc4fbd21e"><path d="M 296.535156 120.046875 L 311.109375 256.148438 L 175.007812 270.722656 L 160.433594 134.621094 Z M 296.535156 120.046875 " clip-rule="nonzero"/></clipPath><clipPath id="d23c539672"><path d="M 303.820312 188.097656 C 299.796875 150.511719 266.066406 123.308594 228.484375 127.332031 C 190.902344 131.355469 163.695312 165.085938 167.71875 202.671875 C 171.746094 240.253906 205.472656 267.457031 243.058594 263.433594 C 280.640625 259.410156 307.847656 225.679688 303.820312 188.097656 Z M 303.820312 188.097656 " clip-rule="nonzero"/></clipPath><clipPath id="4f0c6fde6d"><path d="M 167 126 L 305 126 L 305 264 L 167 264 Z M 167 126 " clip-rule="nonzero"/></clipPath><clipPath id="0f9cea10ad"><path d="M 296.535156 120.046875 L 311.148438 256.515625 L 174.679688 271.128906 L 160.066406 134.660156 Z M 296.535156 120.046875 " clip-rule="nonzero"/></clipPath><clipPath id="c43bb15285"><path d="M 296.535156 120.046875 L 311.109375 256.144531 L 175.011719 270.714844 L 160.4375 134.621094 Z M 296.535156 120.046875 " clip-rule="nonzero"/></clipPath><clipPath id="9196c4f767"><path d="M 303.820312 188.09375 C 299.796875 150.511719 266.070312 123.308594 228.488281 127.332031 C 190.90625 131.355469 163.699219 165.085938 167.722656 202.667969 C 171.75 240.25 205.476562 267.453125 243.058594 263.429688 C 280.640625 259.40625 307.847656 225.675781 303.820312 188.09375 Z M 303.820312 188.09375 " clip-rule="nonzero"/></clipPath><clipPath id="3bdefe94e6"><path d="M 90 180 L 210 180 L 210 224 L 90 224 Z M 90 180 " clip-rule="nonzero"/></clipPath><clipPath id="548f165b59"><path d="M 207.3125 175.214844 L 211.742188 216.605469 L 92.582031 229.363281 L 88.152344 187.972656 Z M 207.3125 175.214844 " clip-rule="nonzero"/></clipPath><clipPath id="864dc6300d"><path d="M 209.527344 195.910156 C 208.304688 184.480469 180.660156 178.066406 147.78125 181.589844 C 114.902344 185.109375 89.242188 197.230469 90.464844 208.660156 C 91.6875 220.089844 119.335938 226.5 152.210938 222.980469 C 185.089844 219.457031 210.75 207.339844 209.527344 195.910156 Z M 209.527344 195.910156 " clip-rule="nonzero"/></clipPath></defs><rect x="-37.5" width="450" fill="#ffffff" y="-37.499999" height="449.999989" fill-opacity="1"/><rect x="-37.5" width="450" fill="#ffffff" y="-37.499999" height="449.999989" fill-opacity="1"/><g clip-path="url(#75c9dd5a96)"><g clip-path="url(#6c1f524d8c)"><g clip-path="url(#3e6cd40659)"><path fill="#ffbd59" d="M 239.125 76.820312 C 241.261719 71.910156 243.476562 67.035156 245.507812 62.082031 C 246.941406 58.597656 248.125 55.003906 249.421875 51.460938 C 249.796875 51.585938 250.171875 51.710938 250.550781 51.835938 C 247.742188 61.003906 244.933594 70.175781 242.121094 79.34375 C 242.507812 79.488281 242.894531 79.632812 243.28125 79.777344 C 247.0625 70.921875 250.84375 62.0625 254.628906 53.207031 C 254.835938 53.269531 255.046875 53.332031 255.257812 53.398438 C 252.304688 62.902344 249.347656 72.402344 246.390625 81.90625 C 246.792969 82.058594 247.195312 82.210938 247.597656 82.367188 C 251.636719 73.265625 255.675781 64.160156 259.710938 55.058594 C 259.921875 55.132812 260.132812 55.210938 260.339844 55.285156 C 257.351562 64.398438 254.367188 73.511719 251.378906 82.628906 C 251.757812 82.78125 252.132812 82.933594 252.511719 83.089844 C 256.453125 74.359375 260.390625 65.628906 264.328125 56.898438 C 264.476562 56.933594 264.621094 56.964844 264.769531 56.996094 C 264.679688 57.546875 264.617188 58.105469 264.496094 58.652344 C 264.371094 59.214844 264.21875 59.777344 264.03125 60.324219 C 260.617188 70.25 257.226562 80.1875 253.75 90.09375 C 252.402344 93.945312 250.113281 96.902344 245.769531 97.785156 C 245.097656 97.917969 244.324219 98.816406 244.074219 99.527344 C 238.714844 114.734375 233.386719 129.945312 228.140625 145.191406 C 225.207031 153.710938 222.5 162.308594 219.539062 170.820312 C 218.558594 173.652344 217.054688 176.273438 213.664062 176.917969 C 213.042969 176.691406 212.421875 176.464844 211.800781 176.238281 C 209.636719 173.460938 210.21875 170.421875 211.3125 167.558594 C 214.703125 158.675781 218.316406 149.878906 221.753906 141.015625 C 227.398438 126.441406 232.980469 111.84375 238.546875 97.242188 C 238.78125 96.632812 238.898438 95.578125 238.5625 95.214844 C 235.824219 92.320312 235.945312 88.777344 236.058594 85.210938 C 237.082031 82.414062 238.105469 79.617188 239.125 76.820312 Z M 239.125 76.820312 " fill-opacity="1" fill-rule="evenodd"/></g></g></g><g clip-path="url(#363e9b2939)"><g clip-path="url(#956819e2d2)"><g clip-path="url(#3be1ad8386)"><path fill="#ffbd59" d="M 290.496094 65.972656 C 290.378906 67.585938 290.632812 69.332031 290.097656 70.789062 C 283.277344 89.328125 276.132812 107.75 269.5 126.351562 C 263.046875 144.453125 257.082031 162.734375 250.90625 180.929688 C 249.816406 184.148438 248.535156 187.203125 244.851562 188.285156 C 244.136719 188.023438 243.425781 187.761719 242.710938 187.503906 C 240.132812 184.636719 241.082031 181.457031 242.226562 178.503906 C 246.183594 168.304688 250.316406 158.179688 254.386719 148.03125 C 257.296875 140.769531 260.179688 133.496094 263.160156 126.265625 C 263.769531 124.789062 263.890625 123.523438 262.875 122.257812 C 260.894531 119.808594 261.085938 117.328125 262.144531 114.4375 C 266.953125 101.3125 271.738281 88.179688 279.035156 76.175781 C 281.621094 71.914062 284.300781 67.609375 289.207031 65.503906 C 289.640625 65.660156 290.066406 65.816406 290.496094 65.972656 Z M 290.496094 65.972656 " fill-opacity="1" fill-rule="evenodd"/></g></g></g><g clip-path="url(#d2c69b8caf)"><g clip-path="url(#dcf3f8a76a)"><g clip-path="url(#d0894f1c4f)"><path fill="#ffbd59" d="M 181.660156 179.101562 C 179.320312 185.949219 178.335938 193.105469 178.738281 200.363281 C 179.140625 207.621094 180.914062 214.625 184 221.167969 C 187.195312 227.945312 191.671875 233.9375 197.304688 238.976562 C 202.933594 244.011719 209.386719 247.796875 216.472656 250.222656 C 223.320312 252.5625 230.476562 253.550781 237.734375 253.148438 C 244.992188 252.742188 251.996094 250.96875 258.539062 247.886719 C 265.335938 244.6875 271.320312 240.222656 276.367188 234.578125 C 281.414062 228.9375 285.191406 222.496094 287.617188 215.410156 C 289.953125 208.5625 290.941406 201.40625 290.539062 194.148438 C 290.136719 186.890625 288.359375 179.886719 285.277344 173.34375 C 283.582031 169.746094 281.527344 166.371094 279.128906 163.25 C 286.085938 155.175781 292.261719 148.820312 297.054688 144.132812 C 305.171875 136.195312 311.90625 130.527344 320.800781 119.835938 C 326.066406 113.507812 329.992188 107.949219 332.519531 104.179688 C 335.6875 100.640625 335.386719 95.214844 331.847656 92.050781 C 328.933594 89.441406 323.761719 89.652344 319.71875 92.722656 C 316.234375 95.71875 310.96875 100.449219 305.035156 106.746094 C 295.425781 116.960938 290.921875 124.007812 283.539062 133.390625 C 279.699219 138.273438 274.402344 144.648438 267.507812 151.9375 C 263.003906 148.65625 258.074219 146.101562 252.78125 144.289062 C 245.9375 141.949219 238.777344 140.960938 231.519531 141.367188 C 224.265625 141.769531 217.261719 143.542969 210.714844 146.628906 C 203.941406 149.824219 197.949219 154.300781 192.910156 159.929688 C 187.871094 165.5625 184.09375 172.003906 181.660156 179.101562 Z M 288.398438 189.125 C 288.324219 188.625 288.246094 188.144531 288.148438 187.644531 C 288.253906 188.132812 288.332031 188.632812 288.398438 189.125 Z M 282.191406 170.824219 C 282.003906 170.488281 281.816406 170.152344 281.609375 169.816406 C 281.804688 170.144531 282.011719 170.476562 282.191406 170.824219 Z M 326.296875 97.75 C 327.589844 98.902344 326.683594 102.03125 324.261719 104.738281 C 321.839844 107.441406 318.835938 108.6875 317.542969 107.535156 C 316.253906 106.378906 317.15625 103.253906 319.578125 100.546875 C 322 97.859375 325.007812 96.59375 326.296875 97.75 Z M 326.296875 97.75 " fill-opacity="1" fill-rule="nonzero"/></g></g></g><g clip-path="url(#10ec7c81d0)"><g clip-path="url(#2bc4fbd21e)"><g clip-path="url(#d23c539672)"><path fill="#ff914d" d="M 296.535156 120.046875 L 311.109375 256.148438 L 175.007812 270.722656 L 160.433594 134.621094 Z M 296.535156 120.046875 " fill-opacity="1" fill-rule="nonzero"/></g></g></g><g clip-path="url(#4f0c6fde6d)"><g clip-path="url(#0f9cea10ad)"><g clip-path="url(#c43bb15285)"><g clip-path="url(#9196c4f767)"><path stroke-linecap="butt" transform="matrix(0.0798527, 0.745737, -0.745737, 0.0798527, 296.534956, 120.04612)" fill="none" stroke-linejoin="miter" d="M 91.248685 0.00147496 C 40.852969 0.000405104 0.000466064 40.851781 -0.000603788 91.247498 C -0.00167364 141.643215 40.854327 182.501451 91.250044 182.502521 C 141.646315 182.498412 182.498818 141.647036 182.499887 91.251319 C 182.500957 40.855602 141.644957 -0.00263392 91.248685 0.00147496 Z M 91.248685 0.00147496 " stroke="#ffbd59" stroke-width="10" stroke-opacity="1" stroke-miterlimit="4"/></g></g></g></g><g clip-path="url(#3bdefe94e6)"><g clip-path="url(#548f165b59)"><g clip-path="url(#864dc6300d)"><path fill="#ff914d" d="M 207.3125 175.214844 L 211.742188 216.605469 L 92.746094 229.347656 L 88.3125 187.957031 Z M 207.3125 175.214844 " fill-opacity="1" fill-rule="nonzero"/></g></g></g><path stroke-linecap="butt" transform="matrix(1.440733, -0.118121, 0.118121, 1.440733, 104.709578, 143.54394)" fill="none" stroke-linejoin="miter" d="M 1.831908 2.999086 C 1.830335 2.158457 1.729378 1.339503 1.529038 0.542226 C 1.334525 -0.259997 1.047866 -0.83118 0.665924 -1.166159 L 14.599184 -1.165271 C 15.91152 -1.166128 17.227737 -0.949764 18.545142 -0.516399 C 19.867933 -0.0825928 21.075222 0.569493 22.164536 1.436943 C 23.256543 2.304614 24.12554 3.379039 24.776915 4.660658 C 25.434339 5.93464 25.763056 7.414843 25.762847 9.103961 C 25.763244 11.414015 25.133882 13.336237 23.874541 14.87332 C 22.621249 16.402764 21.007388 17.468841 19.033177 18.068855 L 20.928072 23.099115 C 21.861768 25.567026 22.726203 27.42464 23.52407 28.672178 C 24.327766 29.914771 25.039504 30.691617 25.664893 31.000463 L 14.662402 31.001265 C 14.908416 30.712348 15.044982 30.303294 15.077708 29.771853 C 15.116262 29.235466 14.976714 28.589583 14.66445 27.834644 L 9.33292 13.033101 L 9.332122 26.86605 C 9.332327 27.6903 9.433725 28.503867 9.633624 29.306531 C 9.833965 30.103808 10.123759 30.669826 10.498062 30.998756 L 0.666757 31.000685 C 1.04646 30.668502 1.33451 30.098345 1.530908 29.290215 C 1.730441 28.476918 1.830105 27.658145 1.8299 26.833895 Z M 9.33292 13.033101 L 14.102037 13.033679 C 15.056443 13.0333 15.842727 12.834769 16.460889 12.438087 C 17.084878 12.03646 17.55187 11.532489 17.861864 10.926173 C 18.175214 10.311998 18.333506 9.70409 18.334047 9.102228 C 18.333096 8.055591 17.982469 7.140251 17.282387 6.353516 C 16.582304 5.566781 15.543666 5.172539 14.166252 5.173484 L 9.332057 5.172993 Z M 9.33292 13.033101 " stroke="#ff914d" stroke-width="8.749991" stroke-opacity="1" stroke-miterlimit="4"/><path stroke-linecap="butt" transform="matrix(1.4454, -0.0220351, 0.0220351, 1.4454, 144.725942, 140.433389)" fill="none" stroke-linejoin="miter" d="M 12.53028 31.497387 C 10.579046 31.497369 8.873226 31.176787 7.412818 30.535641 C 5.957856 29.891876 4.760621 29.006109 3.815629 27.883661 C 2.873338 26.761255 2.166089 25.466766 1.701947 24.003022 C 1.235144 22.536534 1.002106 20.981723 1.000254 19.330443 C 1.00098 17.68731 1.246263 16.134386 1.733441 14.668929 C 2.220618 13.203472 2.959222 11.909405 3.94655 10.786687 C 4.939281 9.664052 6.174303 8.780232 7.648913 8.135185 C 9.123524 7.490138 10.863506 7.165334 12.866076 7.166135 C 14.552481 7.164819 16.028103 7.517024 17.290365 8.214605 C 18.560691 8.915011 19.546888 9.816479 20.246295 10.916265 C 20.945661 12.018753 21.295821 13.159158 21.294114 14.334736 C 21.296057 15.448212 20.998541 16.527395 20.406969 17.572367 C 19.823545 18.614761 18.856589 19.464833 17.511547 20.119963 C 16.171949 20.772473 14.356314 21.096124 12.067259 21.09636 L 8.170196 21.096405 C 8.435937 22.278764 8.967719 23.205735 9.765622 23.871913 C 10.56631 24.532729 11.590919 24.864547 12.831385 24.86454 C 13.655674 24.863593 14.360849 24.698679 14.94695 24.367094 C 15.538496 24.032889 16.028111 23.648485 16.412969 23.221946 C 16.803354 22.787383 17.076446 22.424001 17.234986 22.129139 C 17.789247 22.999699 18.441272 23.839318 19.196382 24.653484 C 19.954275 25.462288 20.678486 26.175989 21.368931 26.799991 C 20.385779 28.357881 19.100417 29.530106 17.510144 30.316624 C 15.927976 31.103266 14.268021 31.496854 12.53028 31.497387 Z M 8.097401 20.730453 C 9.165167 20.535933 10.197413 20.189529 11.196882 19.688581 C 12.199094 19.184972 13.027577 18.554397 13.679546 17.80222 C 14.334258 17.047383 14.66348 16.192994 14.664511 15.239013 C 14.663202 14.793074 14.507677 14.358297 14.200599 13.937424 C 13.89086 13.513809 13.377925 13.300596 12.661754 13.300488 C 12.021236 13.301534 11.336729 13.528922 10.610895 13.985396 C 9.890464 14.441952 9.274773 15.119011 8.763781 16.019275 C 8.25279 16.919538 7.998133 18.023697 7.999812 19.331752 C 7.997719 19.823582 8.031122 20.291631 8.097401 20.730453 Z M 8.097401 20.730453 " stroke="#ff914d" stroke-width="8.749991" stroke-opacity="1" stroke-miterlimit="4"/><path stroke-linecap="butt" transform="matrix(1.444004, 0.0672085, -0.0672085, 1.444004, 178.362694, 139.95566)" fill="none" stroke-linejoin="miter" d="M 0.334944 10.965569 C 1.375457 9.724169 2.627341 8.781318 4.093171 8.134191 C 5.561825 7.489638 7.242856 7.165229 9.131116 7.166613 C 10.729796 7.165245 12.257297 7.378191 13.710668 7.800179 C 15.169563 8.224615 16.467825 8.859413 17.600054 9.704826 C 18.734731 10.544714 19.632566 11.584987 20.293308 12.820245 C 20.962022 14.052426 21.294019 15.48964 21.294824 17.134335 L 21.295474 23.832259 C 21.294678 24.454481 21.348118 25.079588 21.458245 25.702058 C 21.570945 26.321702 21.811262 26.835316 22.174049 27.24855 C 22.542235 27.661533 23.127992 27.866913 23.931444 27.86739 L 23.930884 28.029725 C 23.28645 28.365401 22.608434 28.735102 21.896708 29.136128 C 21.18743 29.531631 20.504391 29.909681 19.847467 30.267579 C 19.19029 30.62008 18.611455 30.912125 18.113785 31.14629 C 17.613416 31.380581 17.264456 31.496913 17.064205 31.495413 C 16.509717 31.496874 16.0389 31.261798 15.646607 30.795834 C 15.257013 30.329745 14.962017 29.745637 14.761744 29.046209 C 14.56687 28.346529 14.467476 27.664047 14.468836 26.995811 L 14.466842 23.465682 C 14.046084 24.131796 13.569083 24.868157 13.043685 25.668989 C 12.52356 26.466871 12.02415 27.244852 11.54558 28.005633 C 11.069459 28.760889 10.665963 29.391033 10.335346 29.901463 C 10.17735 30.168512 9.765434 30.501481 9.097023 30.903197 C 8.431059 31.299388 7.639478 31.495835 6.730627 31.497558 C 5.350967 31.496848 4.228925 31.219043 3.361928 30.666968 C 2.497504 30.112068 1.870802 29.375679 1.481571 28.452402 C 1.095164 27.531699 0.903857 26.501825 0.902503 25.36843 C 0.904538 24.191594 1.175627 23.099622 1.715645 22.089813 C 2.258111 21.074479 2.99851 20.185191 3.931316 19.4195 C 4.863997 18.651109 5.918089 18.050198 7.096543 17.622038 C 8.277445 17.188354 9.511713 16.971303 10.799345 16.970886 C 12.111397 16.972037 13.277317 17.204518 14.297231 17.671026 C 14.008928 16.358921 13.414672 15.33157 12.514335 14.586276 C 11.614124 13.843681 10.506705 13.47322 9.194654 13.472069 C 7.996349 13.473738 6.924543 13.694048 5.979611 14.141096 C 5.037001 14.57992 4.252466 15.276492 3.628705 16.230685 C 3.098729 15.189522 2.577357 14.275101 2.067414 13.489995 C 1.557095 12.696791 0.979605 11.855316 0.334944 10.965569 Z M 8.000221 22.798214 C 7.998103 23.333933 8.175709 23.83694 8.527387 24.302089 C 8.884589 24.769686 9.509517 25.002999 10.399473 25.002155 C 11.175932 25.003888 11.924637 24.758039 12.645839 24.270007 C 13.372188 23.776325 13.979574 23.109639 14.467997 22.269951 L 14.467715 19.299708 C 14.467647 19.123876 14.461928 18.942897 14.450435 18.754072 C 14.441515 18.562421 14.422677 18.390168 14.39367 18.231914 C 14.199317 18.124639 13.984499 18.042662 13.752043 17.988558 C 13.519336 17.929055 13.266416 17.900249 12.995858 17.899316 C 12.062588 17.899471 11.217587 18.168738 10.46343 18.704291 C 9.709147 19.237146 9.111428 19.879035 8.664999 20.632909 C 8.221269 21.386658 7.997877 22.10851 8.000221 22.798214 Z M 8.000221 22.798214 " stroke="#ff914d" stroke-width="8.749991" stroke-opacity="1" stroke-miterlimit="4"/><path stroke-linecap="butt" transform="matrix(1.438624, 0.141518, -0.141518, 1.438624, 212.953687, 141.758955)" fill="none" stroke-linejoin="miter" d="M 1.603617 5.87207 C 1.604012 5.627657 1.577733 5.250104 1.530424 4.741572 C 1.48501 4.224708 1.364606 3.690783 1.163569 3.137638 C 0.962002 2.579113 0.640919 2.102943 0.194676 1.706967 C -0.244028 1.304818 -0.866701 1.102689 -1.6677 1.102741 L -1.66823 0.931731 C -0.844307 0.888695 0.0397489 0.73928 0.984202 0.486173 C 1.92839 0.230377 2.860851 -0.0894322 3.784273 -0.473518 C 4.706902 -0.865672 5.571734 -1.265717 6.37824 -1.679031 C 7.193078 -2.09045 7.8761 -2.461749 8.429994 -2.793193 L 8.429341 21.600845 C 8.431207 23.110351 8.652749 24.12036 9.097185 24.635986 C 9.541092 25.146234 10.177124 25.401354 11.002591 25.40161 C 11.510241 25.400547 11.964812 25.301526 12.360394 25.099696 C 12.761619 24.900027 13.119948 24.623119 13.435644 24.271662 C 13.541857 25.268579 13.718298 26.23415 13.962279 27.168639 C 14.208685 28.100175 14.419204 28.942921 14.599479 29.699039 C 14.043911 30.234293 13.266679 30.669165 12.261873 30.998806 C 11.265399 31.330342 10.23101 31.497261 9.16382 31.496346 C 6.676662 31.496634 4.802117 30.768703 3.532381 29.316036 C 2.268024 27.862839 1.634929 25.788201 1.636579 23.099922 C 1.636579 23.099922 1.634901 22.806838 1.636923 22.220141 C 1.635728 21.62833 1.634574 20.843731 1.636416 19.868769 C 1.635305 18.891381 1.634898 17.810744 1.634667 16.621479 C 1.63686 15.429261 1.630456 14.232457 1.618409 13.033493 C 1.609052 11.834265 1.602516 10.718933 1.604446 9.689656 C 1.602894 8.652576 1.602136 7.789195 1.602438 7.102202 C 1.602476 6.41252 1.602869 6.002476 1.603617 5.87207 Z M 1.603617 5.87207 " stroke="#ff914d" stroke-width="8.749991" stroke-opacity="1" stroke-miterlimit="4"/><g fill="#ffffff" fill-opacity="1"><g transform="translate(108.371331, 188.206678)"><g><path d="M -0.671875 -40.5625 C -0.765625 -41.78125 -1 -42.953125 -1.375 -44.078125 C -1.757812 -45.203125 -2.242188 -45.984375 -2.828125 -46.421875 L 17.234375 -48.0625 C 19.128906 -48.21875 21.054688 -48.0625 23.015625 -47.59375 C 24.972656 -47.125 26.785156 -46.328125 28.453125 -45.203125 C 30.117188 -44.085938 31.5 -42.648438 32.59375 -40.890625 C 33.6875 -39.128906 34.332031 -37.03125 34.53125 -34.59375 C 34.8125 -31.257812 34.132812 -28.414062 32.5 -26.0625 C 30.863281 -23.707031 28.660156 -21.984375 25.890625 -20.890625 L 29.21875 -13.859375 C 30.851562 -10.421875 32.316406 -7.847656 33.609375 -6.140625 C 34.910156 -4.441406 36.035156 -3.40625 36.984375 -3.03125 L 21.125 -1.734375 C 21.445312 -2.179688 21.597656 -2.785156 21.578125 -3.546875 C 21.566406 -4.316406 21.289062 -5.234375 20.75 -6.296875 L 11.328125 -26.984375 L 12.96875 -7.0625 C 13.0625 -5.875 13.296875 -4.710938 13.671875 -3.578125 C 14.054688 -2.453125 14.539062 -1.671875 15.125 -1.234375 L 0.96875 -0.078125 C 1.46875 -0.597656 1.8125 -1.453125 2 -2.640625 C 2.195312 -3.835938 2.25 -5.03125 2.15625 -6.21875 Z M 11.328125 -26.984375 L 18.203125 -27.546875 C 19.566406 -27.648438 20.675781 -28.03125 21.53125 -28.6875 C 22.382812 -29.34375 22.992188 -30.128906 23.359375 -31.046875 C 23.734375 -31.960938 23.882812 -32.851562 23.8125 -33.71875 C 23.695312 -35.226562 23.085938 -36.507812 21.984375 -37.5625 C 20.890625 -38.613281 19.351562 -39.054688 17.375 -38.890625 L 10.40625 -38.328125 Z M 11.328125 -26.984375 "/></g></g></g><g fill="#ffffff" fill-opacity="1"><g transform="translate(145.409029, 185.240776)"><g><path d="M 18.140625 0.4375 C 15.304688 0.476562 12.828125 0.0507812 10.703125 -0.84375 C 8.585938 -1.738281 6.832031 -2.984375 5.4375 -4.578125 C 4.050781 -6.179688 3.003906 -8.035156 2.296875 -10.140625 C 1.597656 -12.253906 1.234375 -14.5 1.203125 -16.875 C 1.160156 -19.257812 1.472656 -21.515625 2.140625 -23.640625 C 2.816406 -25.773438 3.859375 -27.664062 5.265625 -29.3125 C 6.671875 -30.957031 8.429688 -32.257812 10.546875 -33.21875 C 12.671875 -34.1875 15.175781 -34.691406 18.0625 -34.734375 C 20.507812 -34.773438 22.65625 -34.300781 24.5 -33.3125 C 26.34375 -32.332031 27.785156 -31.050781 28.828125 -29.46875 C 29.867188 -27.894531 30.40625 -26.257812 30.4375 -24.5625 C 30.457031 -22.957031 30.050781 -21.394531 29.21875 -19.875 C 28.382812 -18.351562 27.003906 -17.101562 25.078125 -16.125 C 23.148438 -15.144531 20.53125 -14.628906 17.21875 -14.578125 L 11.59375 -14.5 C 12.007812 -12.789062 12.800781 -11.460938 13.96875 -10.515625 C 15.132812 -9.566406 16.613281 -9.109375 18.40625 -9.140625 C 19.59375 -9.160156 20.609375 -9.414062 21.453125 -9.90625 C 22.304688 -10.40625 23.007812 -10.972656 23.5625 -11.609375 C 24.113281 -12.242188 24.5 -12.769531 24.71875 -13.1875 C 25.539062 -11.945312 26.503906 -10.75 27.609375 -9.59375 C 28.722656 -8.445312 29.785156 -7.429688 30.796875 -6.546875 C 29.410156 -4.273438 27.578125 -2.550781 25.296875 -1.375 C 23.023438 -0.195312 20.640625 0.40625 18.140625 0.4375 Z M 11.484375 -15.015625 C 13.015625 -15.335938 14.5 -15.867188 15.9375 -16.609375 C 17.375 -17.347656 18.554688 -18.269531 19.484375 -19.375 C 20.421875 -20.488281 20.878906 -21.738281 20.859375 -23.125 C 20.847656 -23.757812 20.613281 -24.378906 20.15625 -24.984375 C 19.695312 -25.585938 18.953125 -25.882812 17.921875 -25.875 C 16.984375 -25.851562 16 -25.503906 14.96875 -24.828125 C 13.9375 -24.148438 13.0625 -23.15625 12.34375 -21.84375 C 11.625 -20.53125 11.28125 -18.925781 11.3125 -17.03125 C 11.320312 -16.332031 11.378906 -15.660156 11.484375 -15.015625 Z M 11.484375 -15.015625 "/></g></g></g><g fill="#ffffff" fill-opacity="1"><g transform="translate(176.279229, 184.719793)"><g><path d="M 1.828125 -28.90625 C 3.421875 -30.632812 5.296875 -31.914062 7.453125 -32.75 C 9.609375 -33.582031 12.050781 -33.9375 14.78125 -33.8125 C 17.09375 -33.695312 19.285156 -33.285156 21.359375 -32.578125 C 23.429688 -31.878906 25.257812 -30.878906 26.84375 -29.578125 C 28.425781 -28.273438 29.65625 -26.707031 30.53125 -24.875 C 31.414062 -23.050781 31.804688 -20.957031 31.703125 -18.59375 L 31.25 -8.90625 C 31.207031 -8.007812 31.242188 -7.109375 31.359375 -6.203125 C 31.484375 -5.304688 31.789062 -4.546875 32.28125 -3.921875 C 32.78125 -3.304688 33.609375 -2.972656 34.765625 -2.921875 L 34.765625 -2.671875 C 33.816406 -2.234375 32.8125 -1.75 31.75 -1.21875 C 30.6875 -0.6875 29.671875 -0.191406 28.703125 0.265625 C 27.742188 0.734375 26.894531 1.117188 26.15625 1.421875 C 25.414062 1.734375 24.898438 1.878906 24.609375 1.859375 C 23.804688 1.828125 23.140625 1.460938 22.609375 0.765625 C 22.078125 0.0664062 21.691406 -0.796875 21.453125 -1.828125 C 21.210938 -2.859375 21.113281 -3.851562 21.15625 -4.8125 L 21.390625 -9.90625 C 20.742188 -8.96875 20.015625 -7.9375 19.203125 -6.8125 C 18.398438 -5.695312 17.625 -4.609375 16.875 -3.546875 C 16.132812 -2.492188 15.507812 -1.613281 15 -0.90625 C 14.75 -0.53125 14.128906 -0.078125 13.140625 0.453125 C 12.148438 0.992188 11 1.234375 9.6875 1.171875 C 7.707031 1.078125 6.109375 0.601562 4.890625 -0.25 C 3.671875 -1.113281 2.8125 -2.222656 2.3125 -3.578125 C 1.8125 -4.941406 1.597656 -6.4375 1.671875 -8.0625 C 1.753906 -9.769531 2.222656 -11.332031 3.078125 -12.75 C 3.929688 -14.175781 5.054688 -15.410156 6.453125 -16.453125 C 7.847656 -17.503906 9.410156 -18.300781 11.140625 -18.84375 C 12.867188 -19.394531 14.664062 -19.628906 16.53125 -19.546875 C 18.425781 -19.453125 20.097656 -19.039062 21.546875 -18.3125 C 21.222656 -20.207031 20.429688 -21.722656 19.171875 -22.859375 C 17.921875 -23.992188 16.347656 -24.601562 14.453125 -24.6875 C 12.722656 -24.769531 11.164062 -24.519531 9.78125 -23.9375 C 8.394531 -23.363281 7.210938 -22.410156 6.234375 -21.078125 C 5.535156 -22.617188 4.84375 -23.972656 4.15625 -25.140625 C 3.46875 -26.316406 2.691406 -27.570312 1.828125 -28.90625 Z M 12.09375 -11.3125 C 12.0625 -10.539062 12.285156 -9.800781 12.765625 -9.09375 C 13.253906 -8.394531 14.140625 -8.015625 15.421875 -7.953125 C 16.546875 -7.898438 17.644531 -8.203125 18.71875 -8.859375 C 19.800781 -9.523438 20.722656 -10.453125 21.484375 -11.640625 L 21.671875 -15.921875 C 21.679688 -16.179688 21.6875 -16.445312 21.6875 -16.71875 C 21.6875 -17 21.675781 -17.25 21.65625 -17.46875 C 21.382812 -17.644531 21.078125 -17.78125 20.734375 -17.875 C 20.398438 -17.96875 20.039062 -18.023438 19.65625 -18.046875 C 18.300781 -18.109375 17.0625 -17.78125 15.9375 -17.0625 C 14.8125 -16.34375 13.898438 -15.453125 13.203125 -14.390625 C 12.515625 -13.328125 12.144531 -12.300781 12.09375 -11.3125 Z M 12.09375 -11.3125 "/></g></g></g><g fill="#ffffff" fill-opacity="1"><g transform="translate(208.566641, 186.356291)"><g><path d="M 5.859375 -35.9375 C 5.890625 -36.289062 5.910156 -36.835938 5.921875 -37.578125 C 5.929688 -38.316406 5.832031 -39.097656 5.625 -39.921875 C 5.414062 -40.742188 5.019531 -41.472656 4.4375 -42.109375 C 3.851562 -42.753906 2.988281 -43.132812 1.84375 -43.25 L 1.859375 -43.5 C 3.046875 -43.445312 4.335938 -43.535156 5.734375 -43.765625 C 7.128906 -43.992188 8.515625 -44.320312 9.890625 -44.75 C 11.273438 -45.1875 12.582031 -45.640625 13.8125 -46.109375 C 15.039062 -46.585938 16.070312 -47.03125 16.90625 -47.4375 L 13.453125 -12.34375 C 13.242188 -10.164062 13.425781 -8.675781 14 -7.875 C 14.570312 -7.082031 15.445312 -6.625 16.625 -6.5 C 17.363281 -6.425781 18.03125 -6.503906 18.625 -6.734375 C 19.226562 -6.972656 19.78125 -7.320312 20.28125 -7.78125 C 20.289062 -6.332031 20.40625 -4.914062 20.625 -3.53125 C 20.851562 -2.15625 21.046875 -0.910156 21.203125 0.203125 C 20.328125 0.890625 19.140625 1.398438 17.640625 1.734375 C 16.148438 2.066406 14.640625 2.160156 13.109375 2.015625 C 9.535156 1.660156 6.9375 0.347656 5.3125 -1.921875 C 3.695312 -4.191406 3.082031 -7.257812 3.46875 -11.125 C 3.46875 -11.125 3.507812 -11.546875 3.59375 -12.390625 C 3.675781 -13.242188 3.785156 -14.375 3.921875 -15.78125 C 4.054688 -17.1875 4.207031 -18.742188 4.375 -20.453125 C 4.539062 -22.171875 4.703125 -23.894531 4.859375 -25.625 C 5.015625 -27.351562 5.164062 -28.960938 5.3125 -30.453125 C 5.457031 -31.941406 5.578125 -33.179688 5.671875 -34.171875 C 5.773438 -35.160156 5.835938 -35.75 5.859375 -35.9375 Z M 5.859375 -35.9375 "/></g></g></g><path stroke-linecap="butt" transform="matrix(1.28652, -0.131076, 0.131076, 1.28652, 107.475055, 200.593331)" fill="none" stroke-linejoin="miter" d="M 17.095731 31.497765 C 14.675868 31.497159 12.488248 31.064771 10.529557 30.203301 C 8.577796 29.333427 6.901652 28.14246 5.502044 26.621386 C 4.099737 25.097001 3.028194 23.336085 2.278094 21.340726 C 1.534617 19.339968 1.164111 17.195033 1.163572 14.905615 C 1.163033 12.616196 1.53643 10.471146 2.27806 8.466846 C 3.028399 6.466471 4.100499 4.705345 5.500065 3.187087 C 6.900243 1.662819 8.576018 0.473295 10.530088 -0.378173 C 12.487776 -1.235345 14.677901 -1.661972 17.094758 -1.661673 C 19.478254 -1.661736 21.666963 -1.329435 23.663585 -0.661458 C 25.663518 0.00381984 27.308975 1.048954 28.594253 2.470327 C 28.305324 3.160491 28.035593 3.870829 27.781749 4.604039 C 27.525206 5.333938 27.298216 6.012194 27.097772 6.638502 C 26.894629 7.261499 26.733784 7.767354 26.60892 8.158459 C 26.490679 8.544166 26.428707 8.735211 26.428707 8.735211 C 26.428707 8.735211 26.279404 8.531749 25.981411 8.118816 C 25.683417 7.705882 25.205787 7.238211 24.551219 6.719114 C 23.893952 6.196705 23.05173 5.731359 22.027864 5.320378 C 21.007309 4.906698 19.777476 4.699418 18.332047 4.70093 C 16.61972 4.69954 15.029311 5.080998 13.564436 5.839602 C 12.099867 6.595201 10.918629 7.72884 10.017717 9.240213 C 9.11711 10.748581 8.665421 12.648824 8.66596 14.938243 C 8.665943 17.203314 9.11779 19.086307 10.015796 20.583602 C 10.916808 22.081204 12.10134 23.209938 13.563384 23.969191 C 15.029046 24.722741 16.61804 25.100211 18.333371 25.101907 C 19.775795 25.100089 21.008202 24.894696 22.027892 24.482417 C 23.053593 24.07075 23.893647 23.603733 24.551058 23.081672 C 25.205159 22.56231 25.683932 22.09492 25.981061 21.681894 C 26.281195 21.269175 26.429454 21.065667 26.429454 21.065667 C 26.429454 21.065667 26.488604 21.259943 26.609602 21.651808 C 26.733912 22.040973 26.894669 22.549231 27.098496 23.171183 C 27.296619 23.789518 27.525291 24.465619 27.781509 25.199179 C 28.035028 25.929428 28.305715 26.640173 28.593571 27.331412 C 27.309593 28.758213 25.666239 29.808334 23.662896 30.487786 C 21.666482 31.158835 19.476221 31.497396 17.095731 31.497765 Z M 17.095731 31.497765 " stroke="#ff914d" stroke-width="8.749991" stroke-opacity="1" stroke-miterlimit="4"/><path stroke-linecap="butt" transform="matrix(1.292658, -0.0367571, 0.0367571, 1.292658, 146.170689, 196.814269)" fill="none" stroke-linejoin="miter" d="M 12.295754 31.497752 C 10.053531 31.497453 8.082556 30.991149 6.379724 29.981772 C 4.68293 28.972567 3.360403 27.553963 2.415333 25.720009 C 1.473283 23.88614 1.001964 21.757425 1.001461 19.330846 C 1.001388 16.889168 1.47299 14.757047 2.416268 12.934482 C 3.359547 11.111917 4.681085 9.695974 6.380882 8.686651 C 8.083784 7.674396 10.053413 7.165312 12.295636 7.165611 C 14.562014 7.166597 16.545067 7.673245 18.244708 8.688575 C 19.947541 9.697951 21.270154 11.113535 22.215567 12.935412 C 23.157961 14.757203 23.629194 16.888937 23.629268 19.330614 C 23.62977 21.757194 23.158254 23.886296 22.214718 25.717919 C 21.271096 27.552562 19.946367 28.974459 18.243551 29.983695 C 16.546773 30.993103 14.562218 31.495718 12.295754 31.497752 Z M 7.999191 19.363625 C 7.997533 21.122309 8.380415 22.535346 9.144819 23.602651 C 9.915348 24.667108 10.966955 25.198642 12.296622 25.197167 C 13.629223 25.198798 14.683878 24.666718 15.460501 23.603949 C 16.243335 22.535312 16.631095 21.120013 16.632668 19.364348 C 16.631736 17.590481 16.242987 16.171233 15.460294 15.109452 C 14.683899 14.038785 13.629357 13.504145 12.296671 13.505534 C 10.96709 13.50399 9.915369 14.039174 9.147632 15.10824 C 8.380067 16.171268 7.99826 17.589758 7.999191 19.363625 Z M 7.999191 19.363625 " stroke="#ff914d" stroke-width="8.749991" stroke-opacity="1" stroke-miterlimit="4"/><path stroke-linecap="butt" transform="matrix(1.292185, 0.0507198, -0.0507198, 1.292185, 179.769134, 195.91799)" fill="none" stroke-linejoin="miter" d="M 12.294682 31.497509 C 10.054664 31.497766 8.081958 30.991762 6.3797 29.982397 C 4.68046 28.972913 3.361102 27.552508 2.41547 25.718401 C 1.472856 23.884175 1.002394 21.756325 1.000947 19.331952 C 1.001808 16.88935 1.471349 14.757857 2.415491 12.934217 C 3.359751 11.113596 4.682559 9.695287 6.378235 8.688583 C 8.082611 7.672468 10.054867 7.165792 12.294886 7.165535 C 14.562187 7.16723 16.546967 7.67276 18.243425 8.688399 C 19.945683 9.697765 21.270841 11.111896 22.215999 12.93393 C 23.158257 14.759101 23.631856 16.889851 23.630996 19.332452 C 23.629425 21.756944 23.159764 23.885419 22.215978 25.718114 C 21.269293 27.553945 19.946602 28.975272 18.24489 29.982213 C 16.546313 30.992054 14.561865 31.496186 12.294682 31.497509 Z M 7.997328 19.362657 C 7.999876 21.121931 8.381775 22.533788 9.14628 23.604145 C 9.916466 24.66521 10.965208 25.198412 12.295288 25.197595 C 13.628504 25.199679 14.683718 24.665514 15.461286 23.604158 C 16.241517 22.533628 16.633495 21.121625 16.630947 19.362351 C 16.633962 17.590766 16.242653 16.17021 15.460275 15.106601 C 14.683815 14.039736 13.628918 13.503752 12.29582 13.504687 C 10.965741 13.505504 9.916564 14.039431 9.145269 15.106587 C 8.379893 16.170489 8.000343 17.591072 7.997328 19.362657 Z M 7.997328 19.362657 " stroke="#ff914d" stroke-width="8.749991" stroke-opacity="1" stroke-miterlimit="4"/><path stroke-linecap="butt" transform="matrix(1.285793, 0.138023, -0.138023, 1.285793, 213.352534, 197.294783)" fill="none" stroke-linejoin="miter" d="M 1.935467 5.8395 C 1.936061 5.590319 1.913459 5.209957 1.86498 4.701737 C 1.819182 4.190192 1.698401 3.659354 1.496308 3.106864 C 1.296573 2.548045 0.974785 2.069164 0.528262 1.673547 C 0.0901052 1.270956 -0.532939 1.070492 -1.334864 1.07151 L -1.334898 0.901385 C -0.510134 0.858421 0.373069 0.70893 1.317715 0.452588 C 2.262683 0.199251 3.194229 -0.122521 4.116001 -0.507041 C 5.040132 -0.897891 5.905264 -1.300635 6.711719 -1.712271 C 7.527184 -2.124874 8.210398 -2.495938 8.764364 -2.825786 L 8.764014 17.434725 L 15.468906 7.67084 L 23.361688 7.671194 L 16.600393 17.532274 L 24.331641 30.999228 L 16.429848 30.999842 L 8.764591 17.63821 L 8.76439 26.834281 C 8.764662 27.657552 8.864691 28.47619 9.064476 29.290197 C 9.266621 30.097874 9.555711 30.668367 9.93475 31.001354 L 0.766032 31.001255 C 1.143544 30.669082 1.435518 30.106089 1.635304 29.306913 C 1.83777 28.504411 1.935864 27.691847 1.93527 26.865573 Z M 1.935467 5.8395 " stroke="#ff914d" stroke-width="8.749991" stroke-opacity="1" stroke-miterlimit="4"/><g fill="#ffffff" fill-opacity="1"><g transform="translate(111.53841, 240.475454)"><g><path d="M 22.0625 -1.59375 C 18.945312 -1.28125 16.070312 -1.550781 13.4375 -2.40625 C 10.8125 -3.269531 8.5 -4.585938 6.5 -6.359375 C 4.5 -8.128906 2.890625 -10.253906 1.671875 -12.734375 C 0.453125 -15.210938 -0.304688 -17.925781 -0.609375 -20.875 C -0.910156 -23.820312 -0.710938 -26.625 -0.015625 -29.28125 C 0.679688 -31.945312 1.832031 -34.351562 3.4375 -36.5 C 5.039062 -38.644531 7.039062 -40.394531 9.4375 -41.75 C 11.84375 -43.113281 14.601562 -43.953125 17.71875 -44.265625 C 20.78125 -44.578125 23.640625 -44.4375 26.296875 -43.84375 C 28.960938 -43.25 31.21875 -42.125 33.0625 -40.46875 C 32.769531 -39.53125 32.507812 -38.570312 32.28125 -37.59375 C 32.050781 -36.625 31.847656 -35.726562 31.671875 -34.90625 C 31.492188 -34.082031 31.351562 -33.410156 31.25 -32.890625 C 31.144531 -32.367188 31.09375 -32.109375 31.09375 -32.109375 C 31.09375 -32.109375 30.867188 -32.351562 30.421875 -32.84375 C 29.984375 -33.332031 29.3125 -33.867188 28.40625 -34.453125 C 27.5 -35.046875 26.359375 -35.539062 24.984375 -35.9375 C 23.609375 -36.332031 21.988281 -36.4375 20.125 -36.25 C 17.925781 -36.019531 15.929688 -35.320312 14.140625 -34.15625 C 12.359375 -32.988281 10.984375 -31.375 10.015625 -29.3125 C 9.054688 -27.257812 8.726562 -24.757812 9.03125 -21.8125 C 9.332031 -18.894531 10.160156 -16.53125 11.515625 -14.71875 C 12.867188 -12.90625 14.539062 -11.601562 16.53125 -10.8125 C 18.519531 -10.03125 20.613281 -9.753906 22.8125 -9.984375 C 24.675781 -10.171875 26.238281 -10.597656 27.5 -11.265625 C 28.757812 -11.929688 29.773438 -12.640625 30.546875 -13.390625 C 31.316406 -14.148438 31.867188 -14.816406 32.203125 -15.390625 C 32.546875 -15.960938 32.71875 -16.25 32.71875 -16.25 C 32.71875 -16.25 32.816406 -16.003906 33.015625 -15.515625 C 33.222656 -15.035156 33.492188 -14.40625 33.828125 -13.625 C 34.171875 -12.851562 34.554688 -12.007812 34.984375 -11.09375 C 35.410156 -10.1875 35.851562 -9.304688 36.3125 -8.453125 C 34.84375 -6.460938 32.863281 -4.898438 30.375 -3.765625 C 27.894531 -2.628906 25.125 -1.90625 22.0625 -1.59375 Z M 22.0625 -1.59375 "/></g></g></g><g fill="#ffffff" fill-opacity="1"><g transform="translate(147.310159, 236.886658)"><g><path d="M 15.921875 0.1875 C 13.015625 0.269531 10.441406 -0.304688 8.203125 -1.546875 C 5.972656 -2.796875 4.210938 -4.585938 2.921875 -6.921875 C 1.640625 -9.253906 0.957031 -11.988281 0.875 -15.125 C 0.78125 -18.269531 1.304688 -21.039062 2.453125 -23.4375 C 3.609375 -25.832031 5.265625 -27.710938 7.421875 -29.078125 C 9.585938 -30.453125 12.125 -31.179688 15.03125 -31.265625 C 17.945312 -31.347656 20.523438 -30.765625 22.765625 -29.515625 C 25.003906 -28.273438 26.765625 -26.492188 28.046875 -24.171875 C 29.335938 -21.847656 30.03125 -19.113281 30.125 -15.96875 C 30.207031 -12.832031 29.671875 -10.0625 28.515625 -7.65625 C 27.367188 -5.25 25.710938 -3.359375 23.546875 -1.984375 C 21.378906 -0.617188 18.835938 0.101562 15.921875 0.1875 Z M 9.921875 -15.34375 C 9.984375 -13.070312 10.53125 -11.257812 11.5625 -9.90625 C 12.59375 -8.550781 13.96875 -7.898438 15.6875 -7.953125 C 17.414062 -8.003906 18.757812 -8.734375 19.71875 -10.140625 C 20.6875 -11.546875 21.140625 -13.382812 21.078125 -15.65625 C 21.003906 -17.957031 20.445312 -19.78125 19.40625 -21.125 C 18.375 -22.46875 16.992188 -23.113281 15.265625 -23.0625 C 13.546875 -23.007812 12.207031 -22.285156 11.25 -20.890625 C 10.289062 -19.492188 9.847656 -17.644531 9.921875 -15.34375 Z M 9.921875 -15.34375 "/></g></g></g><g fill="#ffffff" fill-opacity="1"><g transform="translate(178.196821, 235.97573)"><g><path d="M 15.859375 1.265625 C 12.953125 1.148438 10.425781 0.394531 8.28125 -1 C 6.144531 -2.394531 4.515625 -4.296875 3.390625 -6.703125 C 2.265625 -9.117188 1.765625 -11.894531 1.890625 -15.03125 C 2.015625 -18.1875 2.734375 -20.921875 4.046875 -23.234375 C 5.359375 -25.546875 7.132812 -27.304688 9.375 -28.515625 C 11.613281 -29.734375 14.1875 -30.285156 17.09375 -30.171875 C 20.019531 -30.054688 22.5625 -29.300781 24.71875 -27.90625 C 26.875 -26.519531 28.507812 -24.625 29.625 -22.21875 C 30.75 -19.8125 31.25 -17.03125 31.125 -13.875 C 31 -10.738281 30.28125 -8.007812 28.96875 -5.6875 C 27.664062 -3.375 25.882812 -1.609375 23.625 -0.390625 C 21.375 0.828125 18.785156 1.378906 15.859375 1.265625 Z M 10.921875 -14.625 C 10.828125 -12.351562 11.25 -10.507812 12.1875 -9.09375 C 13.132812 -7.6875 14.46875 -6.945312 16.1875 -6.875 C 17.914062 -6.8125 19.304688 -7.445312 20.359375 -8.78125 C 21.421875 -10.113281 22 -11.914062 22.09375 -14.1875 C 22.175781 -16.488281 21.742188 -18.347656 20.796875 -19.765625 C 19.847656 -21.179688 18.507812 -21.921875 16.78125 -21.984375 C 15.0625 -22.054688 13.675781 -21.421875 12.625 -20.078125 C 11.570312 -18.742188 11.003906 -16.925781 10.921875 -14.625 Z M 10.921875 -14.625 "/></g></g></g><g fill="#ffffff" fill-opacity="1"><g transform="translate(209.073808, 237.154375)"><g><path d="M 5.953125 -32.09375 C 5.984375 -32.40625 6.003906 -32.890625 6.015625 -33.546875 C 6.035156 -34.210938 5.953125 -34.914062 5.765625 -35.65625 C 5.585938 -36.394531 5.238281 -37.054688 4.71875 -37.640625 C 4.207031 -38.222656 3.441406 -38.570312 2.421875 -38.6875 L 2.453125 -38.890625 C 3.503906 -38.835938 4.65625 -38.90625 5.90625 -39.09375 C 7.15625 -39.289062 8.398438 -39.578125 9.640625 -39.953125 C 10.878906 -40.328125 12.046875 -40.722656 13.140625 -41.140625 C 14.242188 -41.554688 15.179688 -41.941406 15.953125 -42.296875 L 13.15625 -16.25 L 23.109375 -27.859375 L 33.265625 -26.78125 L 23.203125 -15.03125 L 31.28125 3.359375 L 21.125 2.265625 L 13.125 -15.984375 L 11.859375 -4.15625 C 11.742188 -3.101562 11.753906 -2.035156 11.890625 -0.953125 C 12.035156 0.117188 12.328125 0.894531 12.765625 1.375 L 0.984375 0.109375 C 1.503906 -0.265625 1.953125 -0.953125 2.328125 -1.953125 C 2.703125 -2.960938 2.941406 -3.992188 3.046875 -5.046875 Z M 5.953125 -32.09375 "/></g></g></g></svg>