<svg xmlns="http://www.w3.org/2000/svg" xmlns:xlink="http://www.w3.org/1999/xlink" width="180" zoomAndPan="magnify" viewBox="0 0 135 135.000003" height="180" preserveAspectRatio="xMidYMid meet" version="1.0"><defs><g/><clipPath id="a2b101ca88"><path d="M 0.496094 0 L 134.503906 0 L 134.503906 134.007812 L 0.496094 134.007812 Z M 0.496094 0 " clip-rule="nonzero"/></clipPath><clipPath id="719331c300"><path d="M 70 8 L 98 8 L 98 57 L 70 57 Z M 70 8 " clip-rule="nonzero"/></clipPath><clipPath id="75f7f22294"><path d="M 91.273438 8.003906 L 107.882812 16.402344 L 84.027344 63.574219 L 67.417969 55.171875 Z M 91.273438 8.003906 " clip-rule="nonzero"/></clipPath><clipPath id="044c192aff"><path d="M 91.273438 8.003906 L 107.882812 16.402344 L 84.027344 63.574219 L 67.417969 55.171875 Z M 91.273438 8.003906 " clip-rule="nonzero"/></clipPath><clipPath id="1267df8764"><path d="M 81 15 L 108 15 L 108 63 L 81 63 Z M 81 15 " clip-rule="nonzero"/></clipPath><clipPath id="9c214719e9"><path d="M 91.273438 8.003906 L 107.882812 16.402344 L 84.027344 63.574219 L 67.417969 55.171875 Z M 91.273438 8.003906 " clip-rule="nonzero"/></clipPath><clipPath id="748d82f6b2"><path d="M 91.273438 8.003906 L 107.882812 16.402344 L 84.027344 63.574219 L 67.417969 55.171875 Z M 91.273438 8.003906 " clip-rule="nonzero"/></clipPath><clipPath id="ba01dc0e32"><path d="M 58 30 L 126 30 L 126 81 L 58 81 Z M 58 30 " clip-rule="nonzero"/></clipPath><clipPath id="a9b4e5e1e3"><path d="M 72.550781 88.253906 L 50.285156 53.007812 L 113.230469 13.25 L 135.492188 48.496094 Z M 72.550781 88.253906 " clip-rule="nonzero"/></clipPath><clipPath id="cfeeaaeee2"><path d="M 72.550781 88.253906 L 50.285156 53.007812 L 113.230469 13.25 L 135.492188 48.496094 Z M 72.550781 88.253906 " clip-rule="nonzero"/></clipPath><clipPath id="86bf730ec6"><path d="M 58 38 L 98 38 L 98 79 L 58 79 Z M 58 38 " clip-rule="nonzero"/></clipPath><clipPath id="9b1b1f2ce5"><path d="M 95.714844 36.621094 L 99.910156 75.804688 L 60.730469 80 L 56.535156 40.816406 Z M 95.714844 36.621094 " clip-rule="nonzero"/></clipPath><clipPath id="6cb713351c"><path d="M 97.8125 56.214844 C 96.65625 45.394531 86.945312 37.5625 76.125 38.71875 C 65.304688 39.878906 57.472656 49.589844 58.632812 60.410156 C 59.789062 71.226562 69.5 79.058594 80.320312 77.902344 C 91.140625 76.742188 98.972656 67.03125 97.8125 56.214844 Z M 97.8125 56.214844 " clip-rule="nonzero"/></clipPath><clipPath id="112635fc87"><path d="M 58 38 L 98 38 L 98 79 L 58 79 Z M 58 38 " clip-rule="nonzero"/></clipPath><clipPath id="57cabb18eb"><path d="M 95.714844 36.621094 L 99.917969 75.855469 L 60.683594 80.058594 L 56.484375 40.824219 Z M 95.714844 36.621094 " clip-rule="nonzero"/></clipPath><clipPath id="b6f39d08fb"><path d="M 95.714844 36.621094 L 99.910156 75.796875 L 60.734375 79.992188 L 56.539062 40.816406 Z M 95.714844 36.621094 " clip-rule="nonzero"/></clipPath><clipPath id="f7d1624029"><path d="M 97.8125 56.210938 C 96.65625 45.390625 86.945312 37.5625 76.128906 38.71875 C 65.308594 39.878906 57.480469 49.585938 58.636719 60.40625 C 59.796875 71.222656 69.503906 79.054688 80.324219 77.894531 C 91.140625 76.738281 98.972656 67.027344 97.8125 56.210938 Z M 97.8125 56.210938 " clip-rule="nonzero"/></clipPath><clipPath id="01093fee84"><path d="M 31 60 L 82 60 L 82 79 L 31 79 Z M 31 60 " clip-rule="nonzero"/></clipPath><clipPath id="158c355254"><path d="M 80.601562 58.3125 L 82.460938 75.691406 L 32.417969 81.050781 L 30.558594 63.667969 Z M 80.601562 58.3125 " clip-rule="nonzero"/></clipPath><clipPath id="1e9f8b7e28"><path d="M 81.53125 67 C 81.015625 62.203125 69.40625 59.507812 55.601562 60.988281 C 41.792969 62.464844 31.015625 67.554688 31.53125 72.355469 C 32.042969 77.15625 43.652344 79.847656 57.460938 78.371094 C 71.269531 76.890625 82.042969 71.800781 81.53125 67 Z M 81.53125 67 " clip-rule="nonzero"/></clipPath></defs><g clip-path="url(#a2b101ca88)"><path fill="#ffffff" d="M 0.496094 0 L 134.503906 0 L 134.503906 134.007812 L 0.496094 134.007812 Z M 0.496094 0 " fill-opacity="1" fill-rule="nonzero"/><path fill="#ffffff" d="M 0.496094 0 L 134.503906 0 L 134.503906 134.007812 L 0.496094 134.007812 Z M 0.496094 0 " fill-opacity="1" fill-rule="nonzero"/></g><g clip-path="url(#719331c300)"><g clip-path="url(#75f7f22294)"><g clip-path="url(#044c192aff)"><path fill="#ffbd59" d="M 86.246094 18.035156 C 87.335938 16.167969 88.457031 14.320312 89.503906 12.433594 C 90.246094 11.105469 90.890625 9.722656 91.578125 8.363281 C 91.722656 8.433594 91.867188 8.5 92.011719 8.570312 C 90.449219 12.109375 88.890625 15.648438 87.328125 19.1875 C 87.476562 19.265625 87.625 19.339844 87.769531 19.417969 C 89.707031 16.046875 91.644531 12.679688 93.578125 9.3125 C 93.660156 9.347656 93.742188 9.382812 93.824219 9.417969 C 92.1875 13.085938 90.550781 16.75 88.917969 20.417969 C 89.070312 20.496094 89.222656 20.578125 89.378906 20.660156 C 91.429688 17.203125 93.480469 13.75 95.527344 10.296875 C 95.609375 10.335938 95.6875 10.375 95.769531 10.417969 C 94.140625 13.925781 92.507812 17.433594 90.878906 20.941406 C 91.023438 21.023438 91.167969 21.101562 91.3125 21.183594 C 93.304688 17.871094 95.296875 14.5625 97.289062 11.253906 C 97.347656 11.273438 97.402344 11.292969 97.460938 11.3125 C 97.398438 11.527344 97.347656 11.75 97.273438 11.960938 C 97.199219 12.183594 97.109375 12.398438 97.007812 12.609375 C 95.167969 16.425781 93.339844 20.242188 91.476562 24.046875 C 90.75 25.527344 89.695312 26.601562 87.914062 26.746094 C 87.636719 26.769531 87.285156 27.09375 87.148438 27.367188 C 84.28125 33.203125 81.425781 39.042969 78.597656 44.902344 C 77.015625 48.175781 75.523438 51.492188 73.933594 54.757812 C 73.40625 55.847656 72.679688 56.824219 71.289062 56.921875 C 71.050781 56.800781 70.8125 56.683594 70.574219 56.5625 C 69.839844 55.347656 70.21875 54.15625 70.792969 53.0625 C 72.574219 49.664062 74.4375 46.3125 76.238281 42.925781 C 79.191406 37.355469 82.121094 31.773438 85.046875 26.1875 C 85.167969 25.953125 85.265625 25.539062 85.148438 25.378906 C 84.1875 24.085938 84.402344 22.671875 84.621094 21.25 C 85.164062 20.175781 85.707031 19.105469 86.246094 18.035156 Z M 86.246094 18.035156 " fill-opacity="1" fill-rule="evenodd"/></g></g></g><g clip-path="url(#1267df8764)"><g clip-path="url(#9c214719e9)"><g clip-path="url(#748d82f6b2)"><path fill="#ffbd59" d="M 107.339844 16.128906 C 107.21875 16.769531 107.234375 17.480469 106.953125 18.039062 C 103.339844 25.140625 99.601562 32.183594 96.0625 39.320312 C 92.613281 46.265625 89.359375 53.304688 86.019531 60.300781 C 85.429688 61.539062 84.769531 62.699219 83.246094 62.957031 C 82.96875 62.820312 82.699219 62.683594 82.421875 62.542969 C 81.527344 61.273438 82.058594 60.042969 82.65625 58.914062 C 84.726562 55.019531 86.863281 51.15625 88.976562 47.285156 C 90.488281 44.515625 91.988281 41.738281 93.523438 38.984375 C 93.839844 38.421875 93.949219 37.917969 93.601562 37.363281 C 92.925781 36.289062 93.117188 35.304688 93.679688 34.195312 C 96.230469 29.167969 98.773438 24.136719 102.265625 19.671875 C 103.503906 18.089844 104.78125 16.492188 106.847656 15.878906 C 107.011719 15.964844 107.175781 16.046875 107.339844 16.128906 Z M 107.339844 16.128906 " fill-opacity="1" fill-rule="evenodd"/></g></g></g><g clip-path="url(#ba01dc0e32)"><g clip-path="url(#a9b4e5e1e3)"><g clip-path="url(#cfeeaaeee2)"><path fill="#ffbd59" d="M 61.921875 47.597656 C 60.382812 49.808594 59.300781 52.269531 58.707031 54.910156 C 58.109375 57.546875 58.03125 60.234375 58.46875 62.890625 C 58.921875 65.644531 59.910156 68.246094 61.414062 70.625 C 62.914062 73 64.839844 75.015625 67.128906 76.605469 C 69.339844 78.140625 71.800781 79.222656 74.441406 79.820312 C 77.078125 80.414062 79.769531 80.496094 82.425781 80.058594 C 85.183594 79.605469 87.78125 78.617188 90.164062 77.113281 C 92.546875 75.609375 94.554688 73.6875 96.144531 71.398438 C 97.679688 69.1875 98.765625 66.726562 99.359375 64.085938 C 99.957031 61.445312 100.035156 58.757812 99.597656 56.101562 C 99.359375 54.640625 98.96875 53.222656 98.425781 51.863281 C 101.742188 49.683594 104.601562 48.035156 106.792969 46.847656 C 110.507812 44.832031 113.496094 43.492188 117.769531 40.570312 C 120.300781 38.84375 122.273438 37.253906 123.5625 36.164062 C 125.058594 35.21875 125.503906 33.246094 124.558594 31.753906 C 123.78125 30.519531 121.910156 30.070312 120.148438 30.757812 C 118.597656 31.472656 116.230469 32.628906 113.464844 34.277344 C 108.980469 36.957031 106.652344 39.019531 103.050781 41.625 C 101.179688 42.980469 98.632812 44.722656 95.421875 46.628906 C 94.144531 44.992188 92.640625 43.578125 90.929688 42.386719 C 88.71875 40.851562 86.257812 39.769531 83.617188 39.171875 C 80.976562 38.578125 78.289062 38.496094 75.632812 38.933594 C 72.882812 39.386719 70.28125 40.378906 67.902344 41.878906 C 65.523438 43.382812 63.515625 45.304688 61.921875 47.597656 Z M 99.105469 62.070312 C 99.128906 61.882812 99.152344 61.703125 99.167969 61.515625 C 99.15625 61.699219 99.132812 61.886719 99.105469 62.070312 Z M 98.75 54.886719 C 98.71875 54.746094 98.683594 54.605469 98.644531 54.464844 C 98.683594 54.601562 98.722656 54.742188 98.75 54.886719 Z M 121.992188 33.226562 C 122.335938 33.769531 121.695312 34.796875 120.550781 35.519531 C 119.40625 36.242188 118.203125 36.378906 117.859375 35.835938 C 117.515625 35.289062 118.160156 34.265625 119.300781 33.542969 C 120.441406 32.828125 121.648438 32.679688 121.992188 33.226562 Z M 121.992188 33.226562 " fill-opacity="1" fill-rule="nonzero"/></g></g></g><g clip-path="url(#86bf730ec6)"><g clip-path="url(#9b1b1f2ce5)"><g clip-path="url(#6cb713351c)"><path fill="#ff914d" d="M 95.714844 36.621094 L 99.910156 75.804688 L 60.730469 80 L 56.535156 40.816406 Z M 95.714844 36.621094 " fill-opacity="1" fill-rule="nonzero"/></g></g></g><g clip-path="url(#112635fc87)"><g clip-path="url(#57cabb18eb)"><g clip-path="url(#b6f39d08fb)"><g clip-path="url(#f7d1624029)"><path stroke-linecap="butt" transform="matrix(0.0792656, 0.740254, -0.740254, 0.0792656, 95.715908, 36.622601)" fill="none" stroke-linejoin="miter" d="M 26.461529 0.00121106 C 11.844833 -0.00196451 0.00100541 11.848205 -0.00161152 26.459684 C 0.000429999 41.076938 11.845382 52.920208 26.462078 52.923383 C 41.074116 52.920783 52.922602 41.076389 52.920561 26.459135 C 52.923178 11.847656 41.073567 -0.0013891 26.461529 0.00121106 Z M 26.461529 0.00121106 " stroke="#ffbd59" stroke-width="4" stroke-opacity="1" stroke-miterlimit="4"/></g></g></g></g><g clip-path="url(#01093fee84)"><g clip-path="url(#158c355254)"><g clip-path="url(#1e9f8b7e28)"><path fill="#ff914d" d="M 80.601562 58.3125 L 82.460938 75.691406 L 32.488281 81.042969 L 30.625 63.660156 Z M 80.601562 58.3125 " fill-opacity="1" fill-rule="nonzero"/></g></g></g><path stroke-linecap="butt" transform="matrix(0.361474, -0.0296361, 0.0296361, 0.361474, 41.593422, 51.465603)" fill="none" stroke-linejoin="miter" d="M 1.829719 3.000818 C 1.833958 2.158262 1.728215 1.339108 1.533957 0.545117 C 1.329844 -0.260489 1.052699 -0.83434 0.669437 -1.168344 L 14.598359 -1.161034 C 15.90601 -1.161889 17.228263 -0.945417 18.543649 -0.513379 C 19.869768 -0.0804613 21.070064 0.569076 22.166003 1.436994 C 23.251208 2.304031 24.124715 3.380647 24.776668 4.655228 C 25.439355 5.930689 25.760652 7.415903 25.762907 9.101895 C 25.757055 11.413996 25.134427 13.34053 23.874435 14.869002 C 22.625177 16.398355 21.003218 17.464892 19.030028 18.070375 L 20.930256 23.09988 C 21.862862 25.564568 22.725795 27.429188 23.520814 28.672273 C 24.326568 29.916238 25.041353 30.688067 25.664289 30.998494 L 14.662845 31.004264 C 14.903053 30.710571 15.044719 30.300733 15.077108 29.773873 C 15.121111 29.237158 14.979818 28.587993 14.663082 27.837992 L 9.328589 13.028049 L 9.328321 26.871096 C 9.336576 27.693063 9.432465 28.500603 9.636577 29.306208 C 9.830835 30.1002 10.119595 30.664197 10.492122 30.99732 L 0.668637 31.002409 C 1.042057 30.665605 1.33735 30.09546 1.533047 29.290214 C 1.729624 28.474233 1.828712 27.661067 1.832072 26.829245 Z M 9.328589 13.028049 L 14.104833 13.030605 C 15.055612 13.032911 15.838869 12.837773 16.466219 12.435336 C 17.082834 12.032019 17.55621 11.530507 17.864877 10.929039 C 18.174424 10.316837 18.332811 9.703048 18.328424 9.097527 C 18.33777 8.060874 17.981444 7.134724 17.278274 6.353041 C 16.586717 5.561503 15.548663 5.173816 14.165872 5.16851 L 9.335077 5.172287 Z M 9.328589 13.028049 " stroke="#ff914d" stroke-width="8.749991" stroke-opacity="1" stroke-miterlimit="4"/><path stroke-linecap="butt" transform="matrix(0.362644, -0.0055285, 0.0055285, 0.362644, 51.633355, 50.685179)" fill="none" stroke-linejoin="miter" d="M 12.530348 31.499603 C 10.580818 31.491426 8.87297 31.174557 7.417735 30.538393 C 5.962664 29.891459 4.758893 29.011382 3.817356 27.887557 C 2.875819 26.763732 2.16306 25.471049 1.700779 23.999068 C 1.238335 22.537856 1.003518 20.983171 0.99633 19.335011 C 0.99991 17.687016 1.249866 16.128949 1.735263 14.671415 C 2.220825 13.203113 2.962217 11.911055 3.948836 10.78431 C 4.93529 9.668334 6.176754 8.782448 7.651526 8.137094 C 9.126298 7.491739 10.865535 7.162792 12.869074 7.161021 C 14.549377 7.165094 16.030582 7.510822 17.290825 8.219415 C 18.562001 8.917403 19.550062 9.815734 20.244239 10.914246 C 20.94902 12.02369 21.29793 13.160024 21.290804 14.334016 C 21.295433 15.443558 20.998855 16.526965 20.412006 17.573633 C 19.825156 18.6203 18.853575 19.467214 17.507868 20.125307 C 16.173094 20.772796 14.358473 21.100594 12.06417 21.097932 L 8.164947 21.092346 C 8.437653 22.281376 8.962151 23.204956 9.759817 23.874182 C 10.568415 24.532803 11.586715 24.860702 12.836091 24.868978 C 13.654869 24.859917 14.357485 24.698283 14.944104 24.373307 C 15.54182 24.026958 16.032338 23.646659 16.415823 23.221642 C 16.799471 22.785857 17.07428 22.423813 17.229479 22.135347 C 17.78727 22.994804 18.442311 23.834201 19.194601 24.653537 C 19.957825 25.462269 20.67945 26.173422 21.370082 26.79793 C 20.387665 28.355602 19.098692 29.531596 17.514096 30.315306 C 15.929499 31.099017 14.26466 31.493728 12.530348 31.499603 Z M 8.094981 20.735818 C 9.164402 20.53669 10.203815 20.186302 11.19168 19.684327 C 12.201084 19.18268 13.029219 18.559782 13.67625 17.804865 C 14.33405 17.050112 14.659487 16.193347 14.66333 15.234736 C 14.659292 14.793041 14.504323 14.359815 14.198423 13.935061 C 13.892522 13.510306 13.378727 13.297813 12.657035 13.297583 C 12.021496 13.298666 11.339433 13.525242 10.610682 13.988081 C 9.892864 14.440316 9.26852 15.120178 8.759352 16.017228 C 8.250021 16.925046 7.996355 18.019879 7.997864 19.334033 C 8.001081 19.829575 8.026329 20.293137 8.094981 20.735818 Z M 8.094981 20.735818 " stroke="#ff914d" stroke-width="8.749991" stroke-opacity="1" stroke-miterlimit="4"/><path stroke-linecap="butt" transform="matrix(0.362294, 0.0168623, -0.0168623, 0.362294, 60.072667, 50.565321)" fill="none" stroke-linejoin="miter" d="M 0.331273 10.96363 C 1.373575 9.7291 2.623054 8.776041 4.09197 8.136229 C 5.560385 7.485657 7.23848 7.17035 9.125253 7.168789 C 10.7318 7.169489 12.261792 7.37861 13.715229 7.796151 C 15.169166 8.224451 16.470737 8.853919 17.599425 9.707072 C 18.738371 10.548966 19.627621 11.585775 20.288694 12.816498 C 20.961026 14.057479 21.297092 15.486622 21.298395 17.136204 L 21.297355 23.83186 C 21.294122 24.457365 21.344682 25.080366 21.459794 25.700363 C 21.574907 26.32036 21.814617 26.83752 22.178924 27.251843 C 22.543231 27.666166 23.123956 27.865559 23.932859 27.871038 L 23.929612 28.032919 C 23.287354 28.364707 22.603563 28.730774 21.900258 29.140877 C 21.185193 29.529964 20.501903 29.906789 19.850389 30.271354 C 19.187615 30.625661 18.607906 30.91141 18.112263 31.150118 C 17.61612 31.378068 17.26559 31.49142 17.061176 31.500935 C 16.510981 31.494196 16.036841 31.268279 15.648513 30.801164 C 15.260185 30.334049 14.963176 29.744082 14.757989 29.042022 C 14.56406 28.350219 14.467461 27.664669 14.468691 26.996129 L 14.465827 23.459774 C 14.044508 24.137084 13.5719 24.870691 13.048503 25.671354 C 12.525105 26.472017 12.022224 27.250161 11.550617 28.005286 C 11.068251 28.760911 10.666446 29.394185 10.334444 29.905608 C 10.174324 30.171828 9.769257 30.503358 9.097727 30.901201 C 8.426198 31.299043 7.637567 31.497478 6.731836 31.496506 C 5.351722 31.496049 4.228556 31.224865 3.361338 30.661438 C 2.494621 30.108769 1.867342 29.372444 1.4795 28.452463 C 1.091658 27.532483 0.903724 26.50616 0.904939 25.373996 C 0.903651 24.188038 1.176336 23.097149 1.711737 22.09107 C 2.257396 21.073731 2.992461 20.187743 3.927192 19.421845 C 4.861422 18.645189 5.922509 18.045922 7.099697 17.624544 C 8.276383 17.192409 9.516878 16.972942 10.799663 16.967147 C 12.115225 16.970609 13.279923 17.207513 14.293256 17.667103 C 14.005732 16.354302 13.418726 15.324989 12.51122 14.590925 C 11.613972 13.845602 10.507818 13.476588 9.192256 13.473127 C 7.995539 13.474916 6.927684 13.697129 5.977931 14.140267 C 5.038937 14.582904 4.251824 15.277239 3.62785 16.233531 C 3.094136 15.190956 2.57719 14.276984 2.066253 13.492116 C 1.554815 12.69649 0.976822 11.860834 0.331273 10.96363 Z M 7.998335 22.801196 C 8.001354 23.329372 8.176011 23.838778 8.532063 24.307395 C 8.887615 24.765253 9.513377 25.005678 10.397591 25.007652 C 11.173718 25.003874 11.928069 24.763907 12.648886 24.266733 C 13.370203 23.780317 13.97492 23.105253 14.464539 22.273817 L 14.466197 19.297914 C 14.468944 19.125274 14.460431 18.942377 14.451418 18.748721 C 14.442905 18.565824 14.424134 18.394186 14.395106 18.233807 C 14.195942 18.124475 13.987521 18.04792 13.747325 17.983625 C 13.518388 17.929589 13.268936 17.898071 12.999469 17.899831 C 12.061461 17.900361 11.222042 18.165852 10.460194 18.708064 C 9.708604 19.239016 9.113143 19.881303 8.663054 20.635426 C 8.223723 21.389048 7.998563 22.111139 7.998335 22.801196 Z M 7.998335 22.801196 " stroke="#ff914d" stroke-width="8.749991" stroke-opacity="1" stroke-miterlimit="4"/><path stroke-linecap="butt" transform="matrix(0.360944, 0.0355062, -0.0355062, 0.360944, 68.751402, 51.017758)" fill="none" stroke-linejoin="miter" d="M 1.602192 5.875327 C 1.599378 5.626691 1.573193 5.250486 1.534355 4.745658 C 1.483744 4.231166 1.365659 3.690845 1.159716 3.137521 C 0.964492 2.583144 0.636253 2.106784 0.196435 1.706335 C -0.243382 1.305885 -0.868928 1.107685 -1.670538 1.099961 L -1.664917 0.937074 C -0.847142 0.889096 0.0361744 0.73727 0.985031 0.481596 C 1.923169 0.226977 2.865699 -0.0930081 3.780466 -0.475196 C 4.704897 -0.869157 5.574681 -1.268564 6.378044 -1.683083 C 7.19318 -2.087937 7.881803 -2.458701 8.433192 -2.794321 L 8.430258 21.599438 C 8.427813 23.114801 8.656603 24.120413 9.0973 24.639822 C 9.547661 25.147457 10.178479 25.39925 11.001526 25.404865 C 11.509517 25.398183 11.965144 25.299252 12.356635 25.098406 C 12.758844 24.896506 13.121516 24.622739 13.432879 24.267442 C 13.54271 25.273934 13.723354 26.230171 13.967254 27.169364 C 14.210101 28.097837 14.423075 28.942671 14.594404 29.694201 C 14.041611 30.235583 13.261793 30.66943 12.26567 30.994687 C 11.259883 31.331717 10.226506 31.498304 9.165541 31.494449 C 6.677071 31.501149 4.797445 30.766153 3.528771 29.310896 C 2.271871 27.865303 1.634359 25.7852 1.640835 23.100632 C 1.640835 23.100632 1.633804 22.809121 1.641178 22.223991 C 1.63678 21.629197 1.635894 20.850079 1.636412 19.865198 C 1.637984 18.891036 1.639731 17.808634 1.630934 16.619046 C 1.632856 15.428404 1.633723 14.227043 1.624926 13.037455 C 1.604356 11.838203 1.60294 10.723645 1.598186 9.685171 C 1.605205 8.656362 1.606602 7.790441 1.603433 7.098125 C 1.601318 6.416528 1.604126 6.005004 1.602192 5.875327 Z M 1.602192 5.875327 " stroke="#ff914d" stroke-width="8.749991" stroke-opacity="1" stroke-miterlimit="4"/><g fill="#ffffff" fill-opacity="1"><g transform="translate(42.51214, 62.671289)"><g><path d="M -0.15625 -10.1875 C -0.1875 -10.5 -0.25 -10.789062 -0.34375 -11.0625 C -0.4375 -11.34375 -0.5625 -11.535156 -0.71875 -11.640625 L 4.328125 -12.0625 C 4.804688 -12.09375 5.285156 -12.050781 5.765625 -11.9375 C 6.253906 -11.832031 6.707031 -11.632812 7.125 -11.34375 C 7.550781 -11.0625 7.898438 -10.695312 8.171875 -10.25 C 8.453125 -9.8125 8.613281 -9.289062 8.65625 -8.6875 C 8.726562 -7.851562 8.5625 -7.140625 8.15625 -6.546875 C 7.75 -5.953125 7.195312 -5.515625 6.5 -5.234375 L 7.328125 -3.46875 C 7.742188 -2.613281 8.113281 -1.972656 8.4375 -1.546875 C 8.757812 -1.117188 9.039062 -0.859375 9.28125 -0.765625 L 5.3125 -0.4375 C 5.382812 -0.550781 5.414062 -0.703125 5.40625 -0.890625 C 5.40625 -1.085938 5.34375 -1.320312 5.21875 -1.59375 L 2.84375 -6.78125 L 3.25 -1.78125 C 3.28125 -1.476562 3.34375 -1.1875 3.4375 -0.90625 C 3.53125 -0.625 3.648438 -0.425781 3.796875 -0.3125 L 0.234375 -0.015625 C 0.367188 -0.148438 0.457031 -0.367188 0.5 -0.671875 C 0.550781 -0.972656 0.566406 -1.273438 0.546875 -1.578125 Z M 2.84375 -6.78125 L 4.5625 -6.921875 C 4.914062 -6.941406 5.195312 -7.035156 5.40625 -7.203125 C 5.625 -7.367188 5.78125 -7.566406 5.875 -7.796875 C 5.96875 -8.023438 6.003906 -8.25 5.984375 -8.46875 C 5.953125 -8.84375 5.796875 -9.160156 5.515625 -9.421875 C 5.242188 -9.691406 4.859375 -9.804688 4.359375 -9.765625 L 2.609375 -9.625 Z M 2.84375 -6.78125 "/></g></g></g><g fill="#ffffff" fill-opacity="1"><g transform="translate(51.804739, 61.927158)"><g><path d="M 4.546875 0.125 C 3.835938 0.132812 3.21875 0.0234375 2.6875 -0.203125 C 2.15625 -0.429688 1.710938 -0.742188 1.359375 -1.140625 C 1.015625 -1.546875 0.753906 -2.015625 0.578125 -2.546875 C 0.398438 -3.078125 0.304688 -3.640625 0.296875 -4.234375 C 0.285156 -4.828125 0.363281 -5.390625 0.53125 -5.921875 C 0.695312 -6.460938 0.957031 -6.941406 1.3125 -7.359375 C 1.664062 -7.773438 2.109375 -8.097656 2.640625 -8.328125 C 3.179688 -8.566406 3.816406 -8.695312 4.546875 -8.71875 C 5.160156 -8.71875 5.695312 -8.597656 6.15625 -8.359375 C 6.613281 -8.117188 6.972656 -7.800781 7.234375 -7.40625 C 7.492188 -7.007812 7.628906 -6.597656 7.640625 -6.171875 C 7.648438 -5.765625 7.550781 -5.367188 7.34375 -4.984375 C 7.132812 -4.609375 6.785156 -4.296875 6.296875 -4.046875 C 5.804688 -3.796875 5.144531 -3.664062 4.3125 -3.65625 L 2.90625 -3.640625 C 3.007812 -3.210938 3.207031 -2.878906 3.5 -2.640625 C 3.800781 -2.398438 4.175781 -2.285156 4.625 -2.296875 C 4.925781 -2.296875 5.179688 -2.359375 5.390625 -2.484375 C 5.597656 -2.617188 5.769531 -2.765625 5.90625 -2.921875 C 6.050781 -3.078125 6.148438 -3.207031 6.203125 -3.3125 C 6.410156 -3 6.648438 -2.695312 6.921875 -2.40625 C 7.203125 -2.113281 7.472656 -1.863281 7.734375 -1.65625 C 7.378906 -1.070312 6.914062 -0.628906 6.34375 -0.328125 C 5.769531 -0.0351562 5.171875 0.113281 4.546875 0.125 Z M 2.875 -3.765625 C 3.257812 -3.835938 3.632812 -3.96875 4 -4.15625 C 4.363281 -4.34375 4.660156 -4.578125 4.890625 -4.859375 C 5.128906 -5.140625 5.242188 -5.453125 5.234375 -5.796875 C 5.234375 -5.960938 5.175781 -6.117188 5.0625 -6.265625 C 4.945312 -6.421875 4.757812 -6.492188 4.5 -6.484375 C 4.269531 -6.484375 4.019531 -6.394531 3.75 -6.21875 C 3.488281 -6.050781 3.269531 -5.804688 3.09375 -5.484375 C 2.914062 -5.160156 2.832031 -4.757812 2.84375 -4.28125 C 2.84375 -4.101562 2.851562 -3.929688 2.875 -3.765625 Z M 2.875 -3.765625 "/></g></g></g><g fill="#ffffff" fill-opacity="1"><g transform="translate(59.549934, 61.796448)"><g><path d="M 0.46875 -7.25 C 0.863281 -7.6875 1.332031 -8.003906 1.875 -8.203125 C 2.414062 -8.410156 3.03125 -8.5 3.71875 -8.46875 C 4.300781 -8.445312 4.847656 -8.347656 5.359375 -8.171875 C 5.878906 -7.992188 6.335938 -7.738281 6.734375 -7.40625 C 7.140625 -7.082031 7.453125 -6.691406 7.671875 -6.234375 C 7.890625 -5.785156 7.984375 -5.265625 7.953125 -4.671875 L 7.84375 -2.234375 C 7.832031 -2.015625 7.835938 -1.789062 7.859375 -1.5625 C 7.890625 -1.332031 7.96875 -1.140625 8.09375 -0.984375 C 8.21875 -0.828125 8.425781 -0.742188 8.71875 -0.734375 L 8.71875 -0.671875 C 8.476562 -0.554688 8.222656 -0.429688 7.953125 -0.296875 C 7.691406 -0.171875 7.441406 -0.0507812 7.203125 0.0625 C 6.960938 0.175781 6.75 0.273438 6.5625 0.359375 C 6.375 0.441406 6.242188 0.476562 6.171875 0.46875 C 5.972656 0.46875 5.804688 0.375 5.671875 0.1875 C 5.546875 0.0078125 5.453125 -0.203125 5.390625 -0.453125 C 5.328125 -0.710938 5.300781 -0.960938 5.3125 -1.203125 L 5.375 -2.484375 C 5.207031 -2.253906 5.019531 -2 4.8125 -1.71875 C 4.613281 -1.4375 4.421875 -1.160156 4.234375 -0.890625 C 4.054688 -0.617188 3.898438 -0.398438 3.765625 -0.234375 C 3.710938 -0.128906 3.554688 -0.0078125 3.296875 0.125 C 3.046875 0.257812 2.753906 0.316406 2.421875 0.296875 C 1.921875 0.273438 1.519531 0.15625 1.21875 -0.0625 C 0.914062 -0.28125 0.703125 -0.554688 0.578125 -0.890625 C 0.453125 -1.234375 0.398438 -1.613281 0.421875 -2.03125 C 0.441406 -2.457031 0.554688 -2.847656 0.765625 -3.203125 C 0.984375 -3.554688 1.269531 -3.863281 1.625 -4.125 C 1.976562 -4.394531 2.367188 -4.597656 2.796875 -4.734375 C 3.234375 -4.867188 3.6875 -4.925781 4.15625 -4.90625 C 4.625 -4.882812 5.039062 -4.785156 5.40625 -4.609375 C 5.320312 -5.078125 5.125 -5.453125 4.8125 -5.734375 C 4.5 -6.023438 4.109375 -6.179688 3.640625 -6.203125 C 3.203125 -6.222656 2.804688 -6.160156 2.453125 -6.015625 C 2.097656 -5.867188 1.800781 -5.628906 1.5625 -5.296875 C 1.394531 -5.679688 1.222656 -6.019531 1.046875 -6.3125 C 0.867188 -6.613281 0.675781 -6.925781 0.46875 -7.25 Z M 3.046875 -2.828125 C 3.035156 -2.640625 3.085938 -2.457031 3.203125 -2.28125 C 3.328125 -2.101562 3.546875 -2.007812 3.859375 -2 C 4.148438 -1.976562 4.429688 -2.050781 4.703125 -2.21875 C 4.972656 -2.382812 5.203125 -2.617188 5.390625 -2.921875 L 5.453125 -4 C 5.453125 -4.0625 5.453125 -4.125 5.453125 -4.1875 C 5.453125 -4.257812 5.445312 -4.320312 5.4375 -4.375 C 5.363281 -4.425781 5.285156 -4.460938 5.203125 -4.484375 C 5.117188 -4.515625 5.03125 -4.53125 4.9375 -4.53125 C 4.59375 -4.539062 4.28125 -4.457031 4 -4.28125 C 3.71875 -4.101562 3.488281 -3.878906 3.3125 -3.609375 C 3.144531 -3.335938 3.054688 -3.078125 3.046875 -2.828125 Z M 3.046875 -2.828125 "/></g></g></g><g fill="#ffffff" fill-opacity="1"><g transform="translate(67.650711, 62.207036)"><g><path d="M 1.46875 -9.015625 C 1.476562 -9.097656 1.484375 -9.234375 1.484375 -9.421875 C 1.484375 -9.617188 1.457031 -9.816406 1.40625 -10.015625 C 1.351562 -10.222656 1.253906 -10.40625 1.109375 -10.5625 C 0.960938 -10.726562 0.742188 -10.828125 0.453125 -10.859375 L 0.453125 -10.921875 C 0.765625 -10.910156 1.09375 -10.929688 1.4375 -10.984375 C 1.789062 -11.046875 2.140625 -11.128906 2.484375 -11.234375 C 2.828125 -11.335938 3.148438 -11.445312 3.453125 -11.5625 C 3.765625 -11.6875 4.03125 -11.800781 4.25 -11.90625 L 3.375 -3.09375 C 3.320312 -2.550781 3.367188 -2.175781 3.515625 -1.96875 C 3.660156 -1.769531 3.878906 -1.65625 4.171875 -1.625 C 4.359375 -1.601562 4.523438 -1.625 4.671875 -1.6875 C 4.828125 -1.75 4.96875 -1.832031 5.09375 -1.9375 C 5.09375 -1.582031 5.117188 -1.234375 5.171875 -0.890625 C 5.234375 -0.546875 5.28125 -0.234375 5.3125 0.046875 C 5.09375 0.210938 4.796875 0.335938 4.421875 0.421875 C 4.054688 0.515625 3.679688 0.546875 3.296875 0.515625 C 2.390625 0.421875 1.734375 0.0859375 1.328125 -0.484375 C 0.929688 -1.054688 0.78125 -1.820312 0.875 -2.78125 C 0.875 -2.78125 0.882812 -2.882812 0.90625 -3.09375 C 0.925781 -3.3125 0.953125 -3.597656 0.984375 -3.953125 C 1.023438 -4.316406 1.066406 -4.707031 1.109375 -5.125 C 1.148438 -5.550781 1.1875 -5.984375 1.21875 -6.421875 C 1.257812 -6.859375 1.296875 -7.257812 1.328125 -7.625 C 1.367188 -8 1.398438 -8.3125 1.421875 -8.5625 C 1.453125 -8.8125 1.46875 -8.960938 1.46875 -9.015625 Z M 1.46875 -9.015625 "/></g></g></g><path stroke-linecap="butt" transform="matrix(0.323909, -0.0330012, 0.0330012, 0.323909, 39.169188, 64.686987)" fill="none" stroke-linejoin="miter" d="M 17.095975 31.494692 C 14.67134 31.500914 12.485105 31.061096 10.534837 30.199111 C 8.572633 29.33591 6.897563 28.140172 5.496475 26.622616 C 4.096604 25.093125 3.021881 23.331448 2.284243 21.338801 C 1.534669 19.344938 1.162627 17.196584 1.1669 14.905675 C 1.159237 12.613549 1.534511 10.468977 2.280786 8.470741 C 3.028278 6.460569 4.100018 4.700507 5.496008 3.190556 C 6.906366 1.65795 8.582285 0.478012 10.526198 -0.373128 C 12.483263 -1.234989 14.673504 -1.663062 17.096924 -1.657348 C 19.473816 -1.668435 21.66978 -1.324104 23.664592 -0.662595 C 25.659405 -0.00108647 27.31326 1.047774 28.591567 2.468402 C 28.303758 3.162661 28.038605 3.871288 27.782955 4.605003 C 27.527306 5.338718 27.301608 6.015186 27.093927 6.633191 C 26.896965 7.264348 26.737252 7.766643 26.612355 8.163948 C 26.488674 8.549318 26.433409 8.736642 26.433409 8.736642 C 26.433409 8.736642 26.285765 8.528645 25.977325 8.123368 C 25.682036 7.707373 25.211359 7.237328 24.552141 6.723955 C 23.894138 6.198646 23.049803 5.726711 22.029853 5.321302 C 21.01112 4.903957 19.777092 4.705871 18.330202 4.703172 C 16.618292 4.697592 15.023849 5.07783 13.55881 5.845104 C 12.096203 6.588505 10.91938 7.722816 10.016407 9.246818 C 9.115865 10.746948 8.669426 12.643076 8.665153 14.933985 C 8.663313 17.201023 9.121788 19.09287 10.019139 20.583221 C 10.915275 22.085509 12.103408 23.207517 13.569172 23.9719 C 15.024217 24.723131 16.613662 25.102145 18.338724 25.097006 C 19.773678 25.098489 21.012028 24.899045 22.03112 24.484307 C 23.050212 24.069569 23.893914 23.600782 24.550292 23.076731 C 25.205454 22.564615 25.687434 22.095154 25.983081 21.679066 C 26.277511 21.274915 26.43191 21.061511 26.43191 21.061511 C 26.43191 21.061511 26.484068 21.259781 26.613471 21.646816 C 26.729723 22.04457 26.895924 22.543892 27.097709 23.167436 C 27.299493 23.79098 27.520285 24.464699 27.782739 25.202962 C 28.034474 25.928073 28.311297 26.64368 28.590551 27.335416 C 27.311712 28.760825 25.661106 29.810685 23.662603 30.487428 C 21.6641 31.164171 19.483587 31.496757 17.095975 31.494692 Z M 17.095975 31.494692 " stroke="#ff914d" stroke-width="8.749991" stroke-opacity="1" stroke-miterlimit="4"/><path stroke-linecap="butt" transform="matrix(0.325454, -0.00925439, 0.00925439, 0.325454, 48.911646, 63.735523)" fill="none" stroke-linejoin="miter" d="M 12.29062 31.492313 C 10.057923 31.500841 8.080085 30.988507 6.38041 29.979981 C 4.680735 28.971454 3.364771 27.553753 2.420866 25.714543 C 1.476621 23.887326 0.996966 21.761256 1.005888 19.337015 C 1.003499 16.888448 1.472294 14.75334 2.412275 12.931691 C 3.364248 11.110384 4.676742 9.695409 6.373744 8.687448 C 8.08308 7.667836 10.053585 7.171755 12.298276 7.163569 C 14.566611 7.168057 16.54479 7.668398 18.244124 8.688917 C 19.943798 9.697444 21.271755 11.115486 22.216342 12.930711 C 23.160587 14.757928 23.627908 16.895649 23.630638 19.332224 C 23.633709 21.756806 23.153262 23.87958 22.212941 25.713221 C 21.27262 27.546862 19.947791 28.973489 18.238796 29.981109 C 16.541794 30.989069 14.558955 31.496802 12.29062 31.492313 Z M 8.002436 19.36793 C 8.000618 21.120235 8.380466 22.535323 9.142319 23.601199 C 9.916164 24.667417 10.969197 25.201463 12.289422 25.202997 C 13.633974 25.193219 14.681038 24.67088 15.455621 23.600683 C 16.242197 22.530827 16.630227 21.125572 16.632385 19.361273 C 16.634885 17.584982 16.243045 16.169553 15.457206 15.102995 C 14.68336 14.036777 13.630328 13.502731 12.29811 13.500857 C 10.96555 13.510975 9.918146 14.045307 9.143904 15.103511 C 8.381313 16.174049 7.992943 17.591297 8.002436 19.36793 Z M 8.002436 19.36793 " stroke="#ff914d" stroke-width="8.749991" stroke-opacity="1" stroke-miterlimit="4"/><path stroke-linecap="butt" transform="matrix(0.325335, 0.0127698, -0.0127698, 0.325335, 57.370776, 63.509873)" fill="none" stroke-linejoin="miter" d="M 12.295579 31.497263 C 10.05046 31.501339 8.085287 30.990139 6.377025 29.988582 C 4.68028 28.974566 3.363623 27.549405 2.415065 25.713571 C 1.478966 23.889254 0.99912 21.758865 0.999974 19.33345 C 1.000358 16.896047 1.468534 14.75246 2.417903 12.938185 C 3.354813 11.112391 4.679832 9.691603 6.381441 8.68828 C 8.08258 7.672968 10.055709 7.163274 12.301298 7.171187 C 14.558405 7.166641 16.547555 7.676899 18.2443 8.690915 C 19.952562 9.692472 21.26922 11.117633 22.216836 12.929491 C 23.152935 14.753808 23.632781 16.884197 23.632868 19.333588 C 23.632013 21.759003 23.163367 23.890601 22.214468 25.716865 C 21.266041 27.555118 19.953011 28.975435 18.239412 29.979229 C 16.550262 30.99407 14.564674 31.492246 12.295579 31.497263 Z M 8.000956 19.358824 C 7.998198 21.123938 8.37788 22.537848 9.151991 23.600086 C 9.914114 24.662794 10.967701 25.197767 12.300292 25.193489 C 13.633353 25.201199 14.681025 24.667796 15.455766 23.604799 C 16.242025 22.529342 16.63101 21.121281 16.634239 19.368156 C 16.636526 17.591054 16.244385 16.165626 15.458286 15.103859 C 14.684174 14.041622 13.630588 13.506648 12.297527 13.498938 C 10.964936 13.503216 9.917264 14.036619 9.142993 15.111605 C 8.380241 16.174132 8.003715 17.593711 8.000956 19.358824 Z M 8.000956 19.358824 " stroke="#ff914d" stroke-width="8.749991" stroke-opacity="1" stroke-miterlimit="4"/><path stroke-linecap="butt" transform="matrix(0.323726, 0.0347504, -0.0347504, 0.323726, 65.826127, 63.856508)" fill="none" stroke-linejoin="miter" d="M 1.935642 5.834337 C 1.933889 5.593194 1.916771 5.208903 1.861708 4.695953 C 1.819855 4.193652 1.702586 3.663246 1.497972 3.106018 C 1.293358 2.548789 0.975856 2.06401 0.524169 1.678102 C 0.0937788 1.265774 -0.530846 1.067361 -1.339057 1.069653 L -1.333126 0.900085 C -0.504899 0.859445 0.37145 0.70504 1.322338 0.458169 C 2.260016 0.200649 3.191292 -0.116516 4.114885 -0.505256 C 5.038477 -0.893995 5.899864 -1.30019 6.712253 -1.713192 C 7.524643 -2.126194 8.208374 -2.501252 8.764726 -2.826438 L 8.767496 17.432959 L 15.466843 7.675992 L 23.358089 7.673563 L 16.597412 17.533646 L 24.329878 31.002437 L 16.426702 31.006146 L 8.765407 17.638315 L 8.762983 26.833266 C 8.766555 27.653406 8.866841 28.475231 9.062559 29.286812 C 9.270205 30.097113 9.560884 30.669236 9.934594 31.003182 L 0.763501 30.998198 C 1.150285 30.667082 1.439885 30.105068 1.6323 29.312155 C 1.835363 28.506034 1.940433 27.686298 1.936861 26.866157 Z M 1.935642 5.834337 " stroke="#ff914d" stroke-width="8.749991" stroke-opacity="1" stroke-miterlimit="4"/><g fill="#ffffff" fill-opacity="1"><g transform="translate(40.192225, 74.728171)"><g><path d="M 5.5625 -0.40625 C 4.78125 -0.320312 4.054688 -0.390625 3.390625 -0.609375 C 2.722656 -0.828125 2.140625 -1.15625 1.640625 -1.59375 C 1.140625 -2.039062 0.734375 -2.578125 0.421875 -3.203125 C 0.109375 -3.828125 -0.0820312 -4.507812 -0.15625 -5.25 C -0.226562 -5.988281 -0.175781 -6.691406 0 -7.359375 C 0.175781 -8.035156 0.460938 -8.644531 0.859375 -9.1875 C 1.253906 -9.738281 1.757812 -10.179688 2.375 -10.515625 C 2.988281 -10.847656 3.6875 -11.054688 4.46875 -11.140625 C 5.238281 -11.222656 5.957031 -11.1875 6.625 -11.03125 C 7.289062 -10.882812 7.859375 -10.601562 8.328125 -10.1875 C 8.253906 -9.945312 8.1875 -9.707031 8.125 -9.46875 C 8.0625 -9.226562 8.007812 -9.003906 7.96875 -8.796875 C 7.925781 -8.585938 7.890625 -8.414062 7.859375 -8.28125 C 7.835938 -8.15625 7.828125 -8.09375 7.828125 -8.09375 C 7.828125 -8.09375 7.769531 -8.148438 7.65625 -8.265625 C 7.539062 -8.390625 7.367188 -8.523438 7.140625 -8.671875 C 6.910156 -8.828125 6.625 -8.953125 6.28125 -9.046875 C 5.9375 -9.140625 5.53125 -9.164062 5.0625 -9.125 C 4.507812 -9.0625 4.007812 -8.882812 3.5625 -8.59375 C 3.113281 -8.300781 2.769531 -7.894531 2.53125 -7.375 C 2.289062 -6.863281 2.207031 -6.234375 2.28125 -5.484375 C 2.351562 -4.753906 2.5625 -4.160156 2.90625 -3.703125 C 3.25 -3.242188 3.671875 -2.914062 4.171875 -2.71875 C 4.671875 -2.519531 5.195312 -2.453125 5.75 -2.515625 C 6.21875 -2.554688 6.609375 -2.660156 6.921875 -2.828125 C 7.234375 -3.003906 7.488281 -3.1875 7.6875 -3.375 C 7.882812 -3.5625 8.023438 -3.726562 8.109375 -3.875 C 8.191406 -4.019531 8.234375 -4.09375 8.234375 -4.09375 C 8.234375 -4.09375 8.257812 -4.03125 8.3125 -3.90625 C 8.363281 -3.789062 8.429688 -3.632812 8.515625 -3.4375 C 8.597656 -3.238281 8.691406 -3.019531 8.796875 -2.78125 C 8.910156 -2.550781 9.023438 -2.332031 9.140625 -2.125 C 8.773438 -1.625 8.28125 -1.234375 7.65625 -0.953125 C 7.03125 -0.671875 6.332031 -0.488281 5.5625 -0.40625 Z M 5.5625 -0.40625 "/></g></g></g><g fill="#ffffff" fill-opacity="1"><g transform="translate(49.198532, 73.82461)"><g><path d="M 4 0.046875 C 3.269531 0.0664062 2.625 -0.078125 2.0625 -0.390625 C 1.5 -0.703125 1.054688 -1.148438 0.734375 -1.734375 C 0.410156 -2.328125 0.238281 -3.019531 0.21875 -3.8125 C 0.195312 -4.613281 0.332031 -5.3125 0.625 -5.90625 C 0.914062 -6.507812 1.332031 -6.984375 1.875 -7.328125 C 2.414062 -7.671875 3.050781 -7.851562 3.78125 -7.875 C 4.519531 -7.894531 5.171875 -7.75 5.734375 -7.4375 C 6.304688 -7.125 6.753906 -6.675781 7.078125 -6.09375 C 7.398438 -5.507812 7.570312 -4.816406 7.59375 -4.015625 C 7.613281 -3.222656 7.476562 -2.523438 7.1875 -1.921875 C 6.894531 -1.316406 6.472656 -0.84375 5.921875 -0.5 C 5.378906 -0.15625 4.738281 0.0234375 4 0.046875 Z M 2.5 -3.875 C 2.519531 -3.300781 2.660156 -2.84375 2.921875 -2.5 C 3.179688 -2.15625 3.523438 -1.988281 3.953125 -2 C 4.390625 -2.007812 4.726562 -2.191406 4.96875 -2.546875 C 5.21875 -2.910156 5.332031 -3.378906 5.3125 -3.953125 C 5.300781 -4.523438 5.160156 -4.976562 4.890625 -5.3125 C 4.628906 -5.65625 4.28125 -5.820312 3.84375 -5.8125 C 3.414062 -5.800781 3.082031 -5.617188 2.84375 -5.265625 C 2.601562 -4.910156 2.488281 -4.445312 2.5 -3.875 Z M 2.5 -3.875 "/></g></g></g><g fill="#ffffff" fill-opacity="1"><g transform="translate(56.974912, 73.595273)"><g><path d="M 4 0.3125 C 3.269531 0.28125 2.632812 0.09375 2.09375 -0.25 C 1.550781 -0.601562 1.140625 -1.082031 0.859375 -1.6875 C 0.578125 -2.289062 0.453125 -2.988281 0.484375 -3.78125 C 0.515625 -4.582031 0.691406 -5.273438 1.015625 -5.859375 C 1.347656 -6.441406 1.796875 -6.882812 2.359375 -7.1875 C 2.921875 -7.5 3.566406 -7.640625 4.296875 -7.609375 C 5.035156 -7.578125 5.675781 -7.382812 6.21875 -7.03125 C 6.769531 -6.6875 7.1875 -6.210938 7.46875 -5.609375 C 7.757812 -5.003906 7.890625 -4.300781 7.859375 -3.5 C 7.828125 -2.707031 7.644531 -2.019531 7.3125 -1.4375 C 6.976562 -0.851562 6.523438 -0.40625 5.953125 -0.09375 C 5.390625 0.207031 4.738281 0.34375 4 0.3125 Z M 2.765625 -3.6875 C 2.734375 -3.113281 2.835938 -2.648438 3.078125 -2.296875 C 3.316406 -1.941406 3.648438 -1.753906 4.078125 -1.734375 C 4.515625 -1.710938 4.863281 -1.867188 5.125 -2.203125 C 5.394531 -2.546875 5.546875 -3.003906 5.578125 -3.578125 C 5.597656 -4.148438 5.484375 -4.613281 5.234375 -4.96875 C 4.992188 -5.332031 4.65625 -5.523438 4.21875 -5.546875 C 3.789062 -5.566406 3.445312 -5.40625 3.1875 -5.0625 C 2.925781 -4.71875 2.785156 -4.257812 2.765625 -3.6875 Z M 2.765625 -3.6875 "/></g></g></g><g fill="#ffffff" fill-opacity="1"><g transform="translate(64.748866, 73.89202)"><g><path d="M 1.5 -8.09375 C 1.507812 -8.164062 1.515625 -8.285156 1.515625 -8.453125 C 1.523438 -8.617188 1.503906 -8.796875 1.453125 -8.984375 C 1.410156 -9.171875 1.320312 -9.332031 1.1875 -9.46875 C 1.0625 -9.613281 0.867188 -9.703125 0.609375 -9.734375 L 0.609375 -9.796875 C 0.878906 -9.773438 1.171875 -9.789062 1.484375 -9.84375 C 1.804688 -9.894531 2.117188 -9.96875 2.421875 -10.0625 C 2.734375 -10.15625 3.023438 -10.253906 3.296875 -10.359375 C 3.578125 -10.460938 3.816406 -10.554688 4.015625 -10.640625 L 3.3125 -4.078125 L 5.8125 -7.03125 L 8.375 -6.75 L 5.84375 -3.78125 L 7.875 0.84375 L 5.328125 0.578125 L 3.3125 -4.015625 L 2.984375 -1.046875 C 2.960938 -0.773438 2.96875 -0.503906 3 -0.234375 C 3.03125 0.0351562 3.101562 0.226562 3.21875 0.34375 L 0.25 0.03125 C 0.382812 -0.0625 0.492188 -0.234375 0.578125 -0.484375 C 0.671875 -0.742188 0.734375 -1.007812 0.765625 -1.28125 Z M 1.5 -8.09375 "/></g></g></g></svg>