<svg width="30" height="30" viewBox="0 0 30 30" fill="none" xmlns="http://www.w3.org/2000/svg">
<g id="Instagram">
<circle id="Circle" cx="15" cy="15" r="12.5" fill="#2A3342"/>
<g id="instagram icon">
<g id="Group">
<path id="Vector" d="M15 8.85134C17.0026 8.85134 17.2398 8.859 18.0306 8.89508C18.7619 8.92842 19.159 9.0506 19.4233 9.15331C19.7734 9.28937 20.0232 9.45189 20.2856 9.71432C20.5481 9.97678 20.7106 10.2266 20.8467 10.5767C20.9494 10.841 21.0716 11.2381 21.1049 11.9693C21.141 12.7602 21.1486 12.9974 21.1486 15C21.1486 17.0025 21.141 17.2398 21.1049 18.0306C21.0716 18.7618 20.9494 19.159 20.8467 19.4232C20.7106 19.7733 20.5481 20.0232 20.2857 20.2856C20.0232 20.5481 19.7734 20.7106 19.4233 20.8466C19.159 20.9493 18.7619 21.0715 18.0306 21.1049C17.2399 21.141 17.0027 21.1486 15 21.1486C12.9973 21.1486 12.7601 21.141 11.9694 21.1049C11.2381 21.0715 10.841 20.9493 10.5767 20.8466C10.2266 20.7106 9.97679 20.5481 9.71436 20.2856C9.45193 20.0232 9.28937 19.7733 9.15332 19.4232C9.05061 19.159 8.92843 18.7618 8.89508 18.0306C8.859 17.2398 8.85135 17.0025 8.85135 15C8.85135 12.9974 8.859 12.7602 8.89508 11.9693C8.92843 11.2381 9.05061 10.841 9.15332 10.5767C9.28937 10.2266 9.4519 9.97678 9.71436 9.71435C9.97679 9.45189 10.2266 9.28937 10.5767 9.15331C10.841 9.0506 11.2381 8.92842 11.9694 8.89508C12.7602 8.859 12.9974 8.85134 15 8.85134ZM15 7.5C12.9631 7.5 12.7077 7.50863 11.9078 7.54513C11.1095 7.58154 10.5643 7.70834 10.0872 7.89372C9.59402 8.08539 9.17577 8.34184 8.75879 8.75879C8.34184 9.17576 8.08539 9.59402 7.89376 10.0872C7.70834 10.5643 7.58154 11.1095 7.54513 11.9077C7.50863 12.7077 7.5 12.9631 7.5 15C7.5 17.0368 7.50863 17.2923 7.54513 18.0922C7.58154 18.8905 7.70834 19.4357 7.89376 19.9127C8.08539 20.4059 8.34184 20.8242 8.75879 21.2412C9.17577 21.6581 9.59402 21.9146 10.0872 22.1062C10.5643 22.2916 11.1095 22.4184 11.9078 22.4548C12.7077 22.4913 12.9631 22.4999 15 22.4999C17.0369 22.4999 17.2923 22.4913 18.0922 22.4548C18.8905 22.4184 19.4357 22.2916 19.9128 22.1062C20.406 21.9146 20.8242 21.6581 21.2412 21.2412C21.6582 20.8242 21.9146 20.4059 22.1063 19.9127C22.2917 19.4357 22.4185 18.8905 22.4549 18.0922C22.4914 17.2923 22.5 17.0368 22.5 15C22.5 12.9631 22.4914 12.7077 22.4549 11.9077C22.4185 11.1095 22.2917 10.5643 22.1063 10.0872C21.9146 9.59402 21.6582 9.17576 21.2412 8.75879C20.8242 8.34184 20.406 8.08539 19.9128 7.89372C19.4357 7.70834 18.8905 7.58154 18.0922 7.54513C17.2923 7.50863 17.0369 7.5 15 7.5Z" fill="white"/>
</g>
<g id="Group_2">
<path id="Vector_2" d="M15.0035 11.1521C12.8764 11.1521 11.1521 12.8764 11.1521 15.0035C11.1521 17.1305 12.8764 18.8548 15.0035 18.8548C17.1305 18.8548 18.8548 17.1305 18.8548 15.0035C18.8548 12.8764 17.1305 11.1521 15.0035 11.1521ZM15.0035 17.5035C13.6227 17.5035 12.5034 16.3842 12.5034 15.0035C12.5034 13.6228 13.6227 12.5035 15.0035 12.5035C16.3842 12.5035 17.5034 13.6228 17.5034 15.0035C17.5034 16.3842 16.3842 17.5035 15.0035 17.5035Z" fill="white"/>
</g>
<g id="Group_3">
<path id="Vector_3" d="M19.9068 10.9976C19.9068 11.4946 19.5038 11.8976 19.0067 11.8976C18.5097 11.8976 18.1068 11.4946 18.1068 10.9976C18.1068 10.5005 18.5097 10.0976 19.0067 10.0976C19.5038 10.0976 19.9068 10.5005 19.9068 10.9976Z" fill="white"/>
</g>
</g>
</g>
</svg>
