<svg width="30" height="30" viewBox="0 0 30 30" fill="none" xmlns="http://www.w3.org/2000/svg">
<g id="Linkedin">
<circle id="Circle" cx="15" cy="15" r="12.5" fill="#2A3342"/>
<g id="linkedin icon">
<g id="Group">
<path id="Vector" fill-rule="evenodd" clip-rule="evenodd" d="M11.7342 8.92743C11.7342 9.70561 11.1417 10.3354 10.2151 10.3354C9.3246 10.3354 8.73208 9.70561 8.75041 8.92743C8.73208 8.11143 9.32458 7.5 10.2328 7.5C11.1417 7.5 11.7165 8.11143 11.7342 8.92743ZM8.82491 20.5119V11.4476H11.642V20.5113H8.82491V20.5119Z" fill="white"/>
</g>
<g id="Group_2">
<path id="Vector_2" fill-rule="evenodd" clip-rule="evenodd" d="M13.8999 14.3404C13.8999 13.2098 13.8626 12.2459 13.8254 11.4488H16.2722L16.4023 12.6906H16.4579C16.8287 12.1159 17.7553 11.2454 19.2566 11.2454C21.1098 11.2454 22.5 12.4689 22.5 15.1369V20.5131H19.683V15.4899C19.683 14.3215 19.2755 13.525 18.2561 13.525C17.4773 13.525 17.0143 14.0625 16.8292 14.5811C16.7547 14.7667 16.7181 15.0257 16.7181 15.2859V20.5131H13.901V14.3404H13.8999Z" fill="white"/>
</g>
</g>
</g>
</svg>
