<svg width="30" height="30" viewBox="0 0 30 30" fill="none" xmlns="http://www.w3.org/2000/svg">
<g id="Twitter">
<circle id="Circle" cx="15" cy="15" r="12.5" fill="#2A3342"/>
<g id="Twitter_2">
<g id="twitter icon">
<path id="Vector" fill-rule="evenodd" clip-rule="evenodd" d="M22.5 10.1929C21.9485 10.4379 21.3551 10.6029 20.7326 10.6774C21.3681 10.2964 21.856 9.69344 22.0855 8.97498C21.4916 9.32796 20.8321 9.58344 20.1317 9.72194C19.5702 9.12398 18.7697 8.75 17.8853 8.75C16.1859 8.75 14.808 10.1279 14.808 11.8273C14.808 12.0683 14.8355 12.3033 14.888 12.5287C12.3302 12.4008 10.0628 11.1753 8.54493 9.31346C8.27995 9.76793 8.12846 10.2964 8.12846 10.8604C8.12846 11.9278 8.67092 12.8697 9.49737 13.4217C8.9924 13.4057 8.51843 13.2672 8.10296 13.0367V13.0752C8.10296 14.5666 9.16439 15.81 10.5713 16.0935C10.3133 16.1635 10.0413 16.2015 9.76085 16.2015C9.56236 16.2015 9.36937 16.182 9.18139 16.146C9.57286 17.3684 10.7098 18.2584 12.0562 18.2834C11.0033 19.1083 9.67635 19.6008 8.23445 19.6008C7.98547 19.6008 7.74048 19.5863 7.5 19.5573C8.86191 20.4302 10.4793 20.9402 12.2172 20.9402C17.8773 20.9402 20.9726 16.251 20.9726 12.1848C20.9726 12.0513 20.9701 11.9183 20.9636 11.7868C21.5656 11.3518 22.0875 10.8099 22.5 10.1929Z" fill="white"/>
</g>
</g>
</g>
</svg>
